<mxfile host="app.diagrams.net" modified="2024-01-23T03:15:58.156Z" agent="Mozilla/5.0 (Windows NT 10.0; Win64; x64) AppleWebKit/537.36 (KHTML, like Gecko) Chrome/120.0.0.0 Safari/537.36" etag="S6ueerIdXz-Zw3V8ZwdS" version="22.1.21" type="github">
  <diagram name="Page-1" id="x3dNGpEAKK3roOwnV_Cs">
    <mxGraphModel dx="1461" dy="1718" grid="1" gridSize="10" guides="1" tooltips="1" connect="1" arrows="1" fold="1" page="1" pageScale="1" pageWidth="850" pageHeight="1100" math="0" shadow="0">
      <root>
        <mxCell id="0" />
        <mxCell id="1" parent="0" />
        <mxCell id="PDopcycZYU54J8PSpkbe-1" value="" style="rounded=0;whiteSpace=wrap;html=1;dashed=1;dashPattern=12 12;fillColor=none;" vertex="1" parent="1">
          <mxGeometry y="370" width="1100" height="320" as="geometry" />
        </mxCell>
        <mxCell id="PDopcycZYU54J8PSpkbe-2" value="" style="rounded=0;whiteSpace=wrap;html=1;" vertex="1" parent="1">
          <mxGeometry x="400" y="460" width="120" height="150" as="geometry" />
        </mxCell>
        <mxCell id="PDopcycZYU54J8PSpkbe-3" value="" style="rounded=0;whiteSpace=wrap;html=1;" vertex="1" parent="1">
          <mxGeometry x="530" y="397.25" width="390" height="280" as="geometry" />
        </mxCell>
        <mxCell id="PDopcycZYU54J8PSpkbe-4" value="" style="rounded=0;whiteSpace=wrap;html=1;" vertex="1" parent="1">
          <mxGeometry x="930" y="396.75" width="160" height="280" as="geometry" />
        </mxCell>
        <mxCell id="PDopcycZYU54J8PSpkbe-5" value="" style="rounded=0;whiteSpace=wrap;html=1;" vertex="1" parent="1">
          <mxGeometry x="715" y="527.3" width="100" height="110" as="geometry" />
        </mxCell>
        <mxCell id="PDopcycZYU54J8PSpkbe-6" value="" style="rounded=0;whiteSpace=wrap;html=1;" vertex="1" parent="1">
          <mxGeometry x="710" y="420" width="140" height="90" as="geometry" />
        </mxCell>
        <mxCell id="PDopcycZYU54J8PSpkbe-7" value="" style="edgeStyle=orthogonalEdgeStyle;rounded=0;orthogonalLoop=1;jettySize=auto;html=1;" edge="1" parent="1" source="PDopcycZYU54J8PSpkbe-8" target="PDopcycZYU54J8PSpkbe-9">
          <mxGeometry relative="1" as="geometry" />
        </mxCell>
        <mxCell id="PDopcycZYU54J8PSpkbe-8" value="InfluxDB&lt;br&gt;v. 2.3.0" style="fontColor=#0066CC;verticalAlign=middle;verticalLabelPosition=middle;labelPosition=right;align=left;html=1;outlineConnect=0;fillColor=#CCCCCC;strokeColor=#6881B3;gradientColor=none;gradientDirection=north;strokeWidth=2;shape=mxgraph.networks.storage;" vertex="1" parent="1">
          <mxGeometry x="730" y="435" width="60" height="60" as="geometry" />
        </mxCell>
        <mxCell id="PDopcycZYU54J8PSpkbe-9" value="ML Microservice" style="fontColor=#0066CC;verticalAlign=top;verticalLabelPosition=bottom;labelPosition=center;align=center;html=1;outlineConnect=0;fillColor=#CCCCCC;strokeColor=#6881B3;gradientColor=none;gradientDirection=north;strokeWidth=2;shape=mxgraph.networks.desktop_pc;" vertex="1" parent="1">
          <mxGeometry x="735" y="542.05" width="57.5" height="65" as="geometry" />
        </mxCell>
        <mxCell id="PDopcycZYU54J8PSpkbe-10" value="" style="rounded=0;whiteSpace=wrap;html=1;" vertex="1" parent="1">
          <mxGeometry x="539.51" y="484" width="130" height="132" as="geometry" />
        </mxCell>
        <mxCell id="PDopcycZYU54J8PSpkbe-11" value="" style="edgeStyle=orthogonalEdgeStyle;rounded=0;orthogonalLoop=1;jettySize=auto;html=1;" edge="1" parent="1" source="PDopcycZYU54J8PSpkbe-25" target="PDopcycZYU54J8PSpkbe-8">
          <mxGeometry relative="1" as="geometry">
            <Array as="points">
              <mxPoint x="690" y="537" />
              <mxPoint x="690" y="447" />
            </Array>
          </mxGeometry>
        </mxCell>
        <mxCell id="PDopcycZYU54J8PSpkbe-12" style="edgeStyle=orthogonalEdgeStyle;rounded=0;orthogonalLoop=1;jettySize=auto;html=1;" edge="1" parent="1" source="PDopcycZYU54J8PSpkbe-13" target="PDopcycZYU54J8PSpkbe-23">
          <mxGeometry relative="1" as="geometry">
            <Array as="points">
              <mxPoint x="980" y="538.75" />
              <mxPoint x="980" y="538.75" />
            </Array>
          </mxGeometry>
        </mxCell>
        <mxCell id="PDopcycZYU54J8PSpkbe-13" value="" style="sketch=0;outlineConnect=0;fontColor=#232F3E;gradientColor=none;fillColor=#7AA116;strokeColor=none;dashed=0;verticalLabelPosition=bottom;verticalAlign=top;align=center;html=1;fontSize=12;fontStyle=0;aspect=fixed;pointerEvents=1;shape=mxgraph.aws4.action;" vertex="1" parent="1">
          <mxGeometry x="850" y="515" width="48" height="48" as="geometry" />
        </mxCell>
        <mxCell id="PDopcycZYU54J8PSpkbe-14" value="" style="edgeStyle=orthogonalEdgeStyle;rounded=0;orthogonalLoop=1;jettySize=auto;html=1;" edge="1" parent="1" source="PDopcycZYU54J8PSpkbe-9" target="PDopcycZYU54J8PSpkbe-13">
          <mxGeometry relative="1" as="geometry">
            <mxPoint x="760" y="506.75" as="sourcePoint" />
            <mxPoint x="760" y="571.75" as="targetPoint" />
          </mxGeometry>
        </mxCell>
        <mxCell id="PDopcycZYU54J8PSpkbe-15" value="Translator VM" style="text;html=1;strokeColor=none;fillColor=none;align=center;verticalAlign=middle;whiteSpace=wrap;rounded=0;" vertex="1" parent="1">
          <mxGeometry x="415" y="430" width="90" height="30" as="geometry" />
        </mxCell>
        <mxCell id="PDopcycZYU54J8PSpkbe-16" value="Main Server" style="text;html=1;strokeColor=none;fillColor=none;align=center;verticalAlign=middle;whiteSpace=wrap;rounded=0;" vertex="1" parent="1">
          <mxGeometry x="685" y="367.25" width="90" height="30" as="geometry" />
        </mxCell>
        <mxCell id="PDopcycZYU54J8PSpkbe-17" value="User (Development)" style="text;html=1;strokeColor=none;fillColor=none;align=center;verticalAlign=middle;whiteSpace=wrap;rounded=0;" vertex="1" parent="1">
          <mxGeometry x="955" y="366.75" width="115" height="30" as="geometry" />
        </mxCell>
        <mxCell id="PDopcycZYU54J8PSpkbe-18" value="DB Container" style="text;html=1;strokeColor=none;fillColor=none;align=center;verticalAlign=middle;whiteSpace=wrap;rounded=0;" vertex="1" parent="1">
          <mxGeometry x="720" y="397.25" width="80" height="30" as="geometry" />
        </mxCell>
        <mxCell id="PDopcycZYU54J8PSpkbe-19" value="ML Container" style="text;html=1;strokeColor=none;fillColor=none;align=center;verticalAlign=middle;whiteSpace=wrap;rounded=0;" vertex="1" parent="1">
          <mxGeometry x="720" y="637.3" width="90" height="30" as="geometry" />
        </mxCell>
        <mxCell id="PDopcycZYU54J8PSpkbe-20" value="API" style="text;html=1;strokeColor=none;fillColor=none;align=center;verticalAlign=middle;whiteSpace=wrap;rounded=0;" vertex="1" parent="1">
          <mxGeometry x="829" y="608.25" width="90" height="30" as="geometry" />
        </mxCell>
        <mxCell id="PDopcycZYU54J8PSpkbe-21" value="" style="shape=image;verticalLabelPosition=bottom;labelBackgroundColor=default;verticalAlign=top;aspect=fixed;imageAspect=0;image=data:image/png,iVBORw0KGgoAAAANSUhEUgAAANoAAABYCAYAAACTZekIAAAAAXNSR0IArs4c6QAAAARnQU1BAACxjwv8YQUAAAAJcEhZcwAADsMAAA7DAcdvqGQAADwISURBVHhe7d0JtKVHUTjwuve+/c2ezJJ9kpAFAmETAQGVXUBcQAVRVBSPHPcdceHoOXo8Hj3KUf+4IhoEREVQBBSDrMoqECRAIIGQfZvMPvPeu+/d+6/fd6eGbx7JJEMSzJBbSc/XX3d1dXV1VVd1f9/9Xqff7w9jDGM4TmGY2tuNG2Lvrg/FcPHK6C7sjO7KwZjoZnlvMroT89Gd2hwxsyVielMMJjfGSm9DDGJN9FZmsm0vhh2UujGUz5puZ7m5i0ESGU5kymtnZCbDToMcncRLhCZ/Z2BsaGM4jiFNoztMA7sibrn6TTHRvyJmhruiO1xiEWk7k6nhM7GcBrXcmYvh1JqI+ROiu/akmJjcHPNTW5NGlnXWxErMxmA4E4POIDqHDK0zSBrDpMHQuitZx7Qyn2bWHSYeY7yTMDa0MRy30Inl6A2WYrB4Wez4/OtjeuXKmOsezIph1kzHSnqkNImYSAPpZdkwjWWx040D3alYSuM6cd050Zs6NXozZ0Vn6qSs3xArnfRgaXaMopvG2kkvx9CG2X5wKKUJRk/dyBXeKRgb2hiOWxC+daIfneWrY+81b4s4eHlMDHapSA821RhLJ73bVByMqWEa4GCxMZSVyV70ebrl2ZiYPjkmZs6MiTXbY2L+jIiJrenZ1ibl9GTap3HynANhZDcNt7ucBszjTSXtNMI7CWNDG8NxDSv533R3byzvvyyW9l6eFrYjjSFtaln06J+90V3akWlnGiEDGeR/S9kq8xO9WFrupfGtj+70lpicS4Nb++DMn3/IuyV2N8PQbrZZnsi9Wye9YxrrMOmmoTb7tzsJY0Mbw3EMqbrNOcVCBnj70sh25s0CC0sLVJEh4HBfrPRvjeWDO2Ji6UAMFnZGf+G63IftyrQ/cZfTAU4lrek0uHVpP2fH5MaHpIc7PwYT29IkJ9Ik09F1erlNW46J5aXoTk2msfGn9mt3DsaGNobjGA6d/KWnmugyrjQy90K6QXqbnj1UP60kw79heqKDe2MlPd6w/4VY3PvZGCxdn2Hnnqx2SslsctfXnY+V6VOju/5hMZlpMHla9IczWT+MieFKdBdzb9adSFtOX5pldxbGhjaG4xioruOKNK4De2Lhluujv29nRnppFBPTaSjro7duY8TkbKI5xu+lkSxk2HhjOrJbYrD3+jS4DDeXPhO9lVujN+hHtzcRCzEbS1OnxuSGB8fs+odGZ+qM3KNNpG+bTq+WvWU0GdMORuzf7hyMDW0MxzGkkXW7sbJ3d1z7sffF7is+EYNbb47J9E696enozM3GYHZtTM1viS0nnx1rTj0ry2ai3zsQvYwWOyvp5Zavif7u/46l3ZdlWLgnveKB9IDpB3tzsdTbGnMbHhazGx+WYebWNLYMLYWYy+kpnZXYA95JGBvaGI5b6KTmOvdbuvbK+PibXhsTN14Xc4vL6ZUGcTD9Vj9DxkGGlBO92Zie2RDdtSfECWefExsvuCC6mzenk5uM5dzD9QY3RH/vp2Lp1kvSIK7NiHNP7sEG0R/MpTc7PeZPeGj01j4oI9JTMxD1sHvkRUcPre8cjA1tDMctNMcRK2lQ134+PvzqV8SGfXtjbT+9TVrg4sRyrPSWMrjs5x5sGN3OZPQ7E7E/Q8qJU7bHlvMvjG0Xfk0MZ9OYJrPN8KZY3ntJLNz6P7mXuyId1v6kn0Y8mI3u3Fkxt+UxaagXZli5JVY6szExSK+Zxnh0QEHKBeGlL33prze5MYzhuINh9Ca7ud9aigM33Rr7du6NtKkYTOR+jKsbrER3eTkmhh5bD3OPlobhrY+F/bHjc1fEviuvjhPXb4rYsD7DxTXRnd6cIedsDPsZQi7vT0NaiO7EUiwvH4x+esrJNZuSytroduey624mPiqNOI3J0T/ocLOjXPOcrZN4HmyPPdoYjltgOCuxGDPpXVZu3hUHPv3piAP7YmlhbxzYvyv277wpYvFgDDMtHdgbs7lvW3E8n15wsjeTxrE2ds7Mx5nPfEZsOPdBaRte2boulvZ9MBZv+mBM5v5t2N0ffcbS2RZzGx8RvW1PiaWVbXk/kxx0k8ZKE8KyueFwJfG9NwIYmdPPvPP/2NDGcLzCigfJ3VTulYWY8/B438HU71TuSQq+mAiLsbh7R+z+/Ofihk9dGgeuvTbml/sxPLg/1qXnWjrYj6X5+TiweWOc8ZjHx5YHPio6E/20nx2xvPMjcfDmDyTt69KcDo5OG3unx9z2b4/OzAXpOdel9UynwXXSwNJbNmHkKCk7bGiHXtMaG9oYjlvg0Qapy8sry9FbiZieTI+Vir2Siu7l4KHHzcMMHZcyBMzr0mc+HVe9/wPprW6MXnq+mWEaWu7h9kx0Y2nT1jjtUU+MUy98ZOPYIq6JvTe8J/dt/xvTcUv0BunZButjZe4Rse7Mp6YxnRzLwzWJN9EYGug03iz7be6FjAzNe5LjPdoYjmPopiJPDibSCCYznOvF7qXl2NXvx97+Siyl/1jJuo53Hiemotubjt6GjXHCWedGf6Ubt+64NQZL+3If1o+ZjP2WFw7Ewf37Y/2GU3IvdkpaxnS2S0NeuDW6/Z25L1vMNIyFhX7Mzm9IZ7Y5OZhLo8r9oD1YN8PIbnq33AMyNO+MNP96HyxhbGhjOG7BIXt3OdIrDePynbfGOy+5ND56+RfiU1ddF9fcuiduObgQB1PpVzKcHKbhMMyJmbWx7qQzYk2GjLtuuT4jvX50ltJ4Emcl93L9fifWbTkjenNrYmI6w9Hl3TE4uCN7OBid3nJMChWzz4m129OI16RRTaX35LXSbWUom7FmpvRsDKyJGv2TnI4NbQzHKzRnianH1+9dije8731x6U3Xx47l5dixuBRXpce6/Kab4pPXXRc37fFOYzc2zMzHTG8mjWAiZk7cFHPzs3Fj7tsm03C6/aXoLB6Ifhpnd2ou5rdsjeH0VExkTLqysCs95O5stxCTsRzLS8OYWnNGuqmNaXxzGSx6MRlDQsbRG5AjP5bAMDMdvh/DGO4OEDaNDgPuefDLsMWV3Il1+2lst8TBqU7s7g1jb68bC5OzsTAxF7uWe/GJa2+Mt37ko/Guyz4b1+berD+Re6f0bGse8PA4+SGPjsXJuVhJY5npZYi5b2fsveKjsbjj2tGLydMnRW/+rDSf+bSjNJqVDCGH6fn235C9H0gu0oMdMrKBsTfm72j/EIceKSSMDW0Mdwu0DUx+dCBgQR+dyt0TQIk7k4OYSAPbvGV99pXmkvukDl5Sv7tpKMNBLxZ7E3HzYDne8ZlL422f+Hjc0l/0I5ncZ62LLQ/62pg/9YxYTC+2lGV+SrN801Wx+/OXZky6kDTXxXR6r4mp9Y0B9ZwmpgHt33ND1qWnHGTgany1thhqM9wvFvjR6Dh0HMPdApStl/ucMizXdv6eAFQdQHQyzc7Nx7rpuTht7aY4bc2m2BATMVj0AvFyLPm0QW63Brl/unXXzgzzOrFl67aYm5iIdIAxPTsdt95wXSwv7o/ewB6rEyvTszF30skxkbRyoxaDhSsi+jfmNozxTke/MxWza05KBjYnvZmMTPmyYfNrbgaJu+ZX2enKfItkbGhjuFuAMQ0Gh8Kk5gSue/ieAd4TXk145nMDvU43Nq/bEPfbvDXO2XBiPGDLlti+cX1sXDuTId9y7O/vzxBzKXppWH7MecPuvWmYc7F904boLa9Ed82a2L/jxkzXp0dLwsOJ2J/8zmzbGvObtmVHgxguX50OTn0aUCZ0pmY3R2f2tKyfb4y3Mals1z30NghDs4dMCYxDxzHcPbDaiwHGBsrg7n6wH+rFdKcXs9nFmux340w3Ns124syta+NR554eT3noBXHBqdtiPl3N4spKHOxMxN6lbnzsk5+Lff1BDKZyXza7Jk448+zopWdzcDEYZri570As7tqRXmwxu5mI7syJsdxbn57LL63TaId70wPekuPtJw9eME7IYTffEWlSmZadJC83hjHcDVBea3l59BxpJZXatcLJewYYdcTKUvaThjbZS8ObyIJe7sDSANZNRmxfvyYedc45cfrGE2K6N5leLb3ccDJ27DwQV1x/c/QnM8ScnIy5zSfG/Jr5xixw21teis7e3c0+zRPs3vSWGPROaM4UnT52Y28sHrwlV5HF5MHv0rTDj1hRQiXvsZkwDh3HcLcAw9q1a1e8+93vjn/5l3+JT33qU7Fu3brYsGFD49HuCWOjxh4ULy0t5l5oEB+65EPxmn94bbzvg+9vDkS2nbg1Znu5l8r91spKN6674ZboC/3SY+F3qrMSZ28/JWbSUCYW9sbgmi/Ewi23xKSTxO5yzKxbE3On3S9i7Ybo9Jbi4J5rorN8XUz09uR40gZX1sXspockF+uyf4ckGcb68tborD/tzc90mFp6wYbjMYzhLgLv9aY3vSn+8i//Mt7xjnfEv/7rv8Y//MM/xJVXXtl4tXsKhoN+TEx147LPfjpe/qcvj4v/8+K4+O0Xx6te9ar48Ic+FJ00qDW9bpy77eQ4cWYuplaGcdBp4txU3Lhvvw8dNK9s9Rjkmk2NsXRXFmN6pR/9PRkeHjz0DZLubBpUGqx3GtOoO5NpRMMMK5uw0b6MR7MnY6SJ06wrSSvbNgtC+11HwmrH2WJsocBkulbXCgMWFxdjIjeWFXvv2bMnrr322rjmmmua/NLS6Mhzeno61uRGc+vWrbF9+/Y44YR0vdkGHVf0rSzVp3ttK7ZXBoqv1TE/nooPdegqK9wc2x1O8uoxS0C74g1UeeFWvvpRX21ci646PMpXWfFf7YE65a7K5Gs8lPWGG25oyrXRxymnnBKnnnrqYdpFo/opmRR/2psfbYv+aaedFtu2bYup3KcAbeG6ogsXrRqX9uiUXIsPc3vrrbfGz/3czzU42mi/cePGeP7znx9Pf/rTD9MHcHk8/dIl5e2xgRpLgXyNq+Ry6smnxDlnnxMHDxyMV73mb+M1r3uNLxYkDGIuvdgznvb0eM7znh8zGzfFzpy+17393fGpm26Jg17H6nRj+2wvvvvxj4vT10zH/J4dsee/3h7XvPfiWNM/EP2sH249JU56+rNj/iyfobs5dl77zhjufE/M9W6KlanJWFg5P044/YVpWGflvZNIIWvyPZgcpeYZWyaHIym0w4ZWgwEGbtASQ6ty9wTk/rrrrov/+I//iA/lykHA+/fvb3AIomgRyNzcXGzevDke+chHxhOe8IS43/3ud3hC9QMPXVd9aa++6kApTuGVgrnqQ737uiqvdrcH8ID2AP02VL2rpF/0ihf3En7dw6n+Sk6uylzhwC3Qb5u2ay1qBTt37oy3vvWtjXewCKmDQ47Pe97z4qSTTmraKUdbP8WPMn1r9/d///cNjeKPfL7+678+fuiHfihOPDE3+q0+tS+a8N1ff/318ZrXvCb++7//u5lnPOjrV37lV+Ixj3lM7NixI17wghc0ZQsLC00bYeN3fud3xnd913c148OTeX3/+98ff/EXfxG3ZJhWMlVXV7zJV12BOkkfZPst3/It8QPf94I4cOBAvPzl/y/e9a53Jn0f9NB2EE980pPiud/7/Djx1NOjnzRf/bZ3xGU7dsW+3Kt1BitxVnq15z3lSXHSdC/W7N4Zuz763rjy4jfH2v7+5v3I5Y1b46Qnf3OsPy8NbXpX3HzVu2Nu4ZLo9q+NRbLu3T8N7QWpIGfGIOkv+RRdLxfnNLLewCtfyXPj8XJcoyF8EQyuQJ5ACb0ETvi8lkn7hV/4hfi7v/u7+PSnP92UwakJslIRCBoE8YUvfCH+6Z/+KX71V381XvGKVzSTVYIjWN5vZsZvfDL2TcUohQHq4eGl8NShbeJc9atMvaty6WiA3xoX2q7oAFd9AnSMx7iU46d4qqTu4MGDDd+SeuPQtsZXPJdcKEt7bOrbctMXr3DmmWc27asc3c997nOxb9++hr8qNxbXwkFP2VVXXRWXXXZZQ9s9Xvfu3dvQwJ975TW2ogWKv927dzd0zDN89JXzivqX52HJwFiABRb/6tGTjKM8GR1QVyCPLn1BR77qtWXA2kn4oAc8mB9/nr799FhMI1tO/F5vItbOr02Pd2qctGVr87wMR2vMc4aC05nmfDqun/leLgA6yPBzJfdk+2cnY+dUL25ONTgwOxud+dTJ9FZ+ErM8nImF/ppMG2L/Qu7LYmMaie87JnKmzpAXs8CP9msMjNFn5ZGGVsIltNV5wjd4wvmDP/iDeOUrXxk333xzIwz18EpJa7Jr4oqWCbrxxhvjda97Xfz2b/92fPazn21o1sS5ltJL1Y4yoOdak1F9Vr+S9nCAfk3o0aDaA3Ql/QD0apLxQkFca4z6Avitq/7glIK3x1/0QfGsHL/GU2Os8cMpfiizKAC+e4nsGAqlA/pGUzs05OFRRocUws+iqV65+bv88ssbGtoX38ambfGJP0bG2OAoB4973ONiy5YtzRh5Rd6RsaFtu8BjPupRj2pow0FTX8balo0yRqRMqj5KbvCLJ2XqJfdNm9yDPeWpT43HPO6xsWbt2kzr4qEPf3g8Wt9pdIN+yj0Dt3NPOzVO2bA2NnQ7sS75v2D7mTGfnisl1ficybUbY+bk7XFg3ebobzopTjzvwpg/8ZSs5QDWxvr190vFOCV602fH7Py5MTu3Pe/92hovKSvPy/yaQD7ViKagDY44dcR0CdeA5A0GGJh92O/8zu/ERz/60cOCKaETmv2Y5LRpbQ6YgEtghEVZCUzZTTfd1Ey+kFL4gz56pVzoySsrwWurHChDVyo+tCt+23VHg8KvfoqPdlvXNu0CfeIRrnag7tUVrTLK4h0UPWUMq8q0KUWULxx7o0suuaQpd6+cUp9//vmH2+tbnmEUP7zDhz/84Xjve9/btAElGwrOQB74wAc27bQH7T7g8X5OE//nf/6noa0e/rOe9axmEZBXZg/++Mc/Pr72a782vvmbv7kJKekAGmiRCTx69L73va/RIWVliHQB3zzh/Pz8YX2iN8qEorPpZRgyHTP2+19wfkxbJLL9wx/xiPi6Rz86Hv+N3xhPftKT45STTs7+RuNx9L/1xE1xwqZN6eW2xPnbz4iHnXdOzGa97+hPdCdiZm4+Tti8LTZsOz023++BsfHcC6O3bkssLqf+9WZiemZtzPTmYnr2xJjbsH30YvHUyTk2b/Dn/OksTcupI6uwRxsZWpblpB7WHgwRSoHBtw3jd3/3dxthA8IhdEIWHpxxxhnx4Ac/OC644IJGIIC3uuKKK5qY/Oqrr27CR4JErwT/kIc8JL7ne74n7n//+zd1eCigcIRqQlzda1M8yte9dmgWXakU5WigXY27DFtq91OgvA1w2sqJPzKrcv2TT/ElFci3eZQv+q7tenPwnve8J/74j/+4CZmqjsx+4id+Is4666ymXRkmA9Kve3J3EmgO1NUYgX4f9rCHxYtf/OLG4Ny3eah7NIT7jKN4O/nkk+MlL3lJnHPOOYfHW/NHDsVL0QLF9wc+8IH4vd/7veZQpNoYiz1nGa2+4Vd/2km1aCnHw5ZtfheWi0xOFVqJPDrp03Xuw7ye5WVf9TGZ4Xx6v/2p8rOTuZBl2WAp56g78MJW+qOMhjwTI6PJ2TSTXHyMLWlN+VHnyr40uIWIxT1JK03JX6hZ2ZhdpqHlbXabkHiZmv1Z0mpOIdPsvsTQ2hOBcQM2ca9+9aubkK/AoOGdfvrp8aTcdH5jriJWpJocqYTCIB2YvOENb2j2CnBqYijmk5/85Pj+7//+ZpVCV7k2lMpKjg48NBkxD6iMAVptHRhYudWbKKvgply5rH4WhNuD1YqAJzSFSPq2UNR4rLDr169vPDWjr4kH6ktukhVbe2Vw8E6RLUj6JE99COmE4sYCD314JYdSMNfPf/7zzQHCRz7ykYYngJdf+qVfikfkSq5feK7VBt6ll14af/iHf9hED/ohH/XqJDQyqokHPehBh5VeWwm4dwDyp3/6p83hV6PMCd/0Td8UP/ADP9Dwa67QFM7qQxu0yZ4xkB0oGdGF3//932/GX3193dd9XfzGb/zGYd5A8eK+dFGZBG908JEyyrq9e/fFF666OprT95xOhnbytq0p8/VN/SDvs3UM0tD6w2yfON5zdCzvTz8NBj4NbnFMuXRybtODLaX6ZjZxE9l3+1cspAilV0+zTGvLPWHaQW+qMTJ9oNtoRRpZmmhyl4W3ZWgG0x6s/Mc//vH4rd/6rUahlRs8JT777LPjO77jO+LR6a7hlWCqHVBGwMB+4KKLLmqUxYSUIgo/HAM/9rGPbQSKhnYf/OAH4+Uvf3lzb5WkgIz6mc98ZnPKiY6DGJ7SfgNNhujI+bzzzotzzz23CYsouH6KbvFY98CkUxQe2GJAsZ2kGS+FoVAWFWMWsljJKWmBsVBiPHie9PrXv77JA/uYZz/72c1+xV7nYx/7WNMHeejD2LQlB7RFBg996EMb+njEgwXFyeE///M/N/jKjen7vu/74lu/9VubxaXK9GtcDPo///M/G49mIVJv72QBYehw4PKKaADtyyDMhXYOsTyXAvDh/PRP/3Rz8imsQ1f5b/7mbzbyc689edEP42kbMe9qn0/m+rIQfc3XfE3T3ljh6aMN2gHlxj8y+BFuf3kxLvnYpfEHL3tZ4o3azs/NxrO+7VvjiU94fPTSkyUaZUzvlLzZt6WbSo4aGn7JySAY5HIaGhMZfc8gF33d8nI+O+7rWod0OZfP5t+VYYb5abxoo5lWoHVjtNkQavMe5O2+GWIAkklxwvi///u/jRBKYLzK937v9zZH9gTVbiMVlNC1YwT2FRTM0a5yQnF6JgYv5S3hU/yLL764UTKJgIVJ+HDa+ba3va1Zqct76Au/jqKt5BYIisLTMjbtVk+gdozWETqF+q//+q/GcPWnTqJEFFNfn/zkJ5tDCH0xoFqta8zo2xPxAvo2NmN/wAMe0NAky3//939vZIDvMhpewUL2mc98puEdHWMteTN2+GTiql65dgyY/NBRjmdXPL/rXe9qeFaGxhOf+MTGOBxKlTyU20+hR+5lTMA82d/pV71k3I7W6UDpBPoWAbLjpc0DujwlgwPaAqGoRbSiEHzbejg8QQtUuSRfvBaN0TXrmrthfOHKq+Mtb3lrynt/7Nt/IMfQj/POPy/Ou/95uX9Lx9H8LizxDauhyUy+mBTweM1nw5u/kZa6mUbr2425RDderbG5rG/+htowS5Vl2JmBqZqRgSXdQ5TyrumxKWz6KKhBGJS8JAwyUQZcYFIZmFWoYupqe3tQAnNU7QEmBS2alM0DTH2ZsDJcfADtCBmeCReC2ivWgYw2RYuSlHJSXLivfe1rm8lFA14lODzXP/7jPzZvMjA4fSivPiX03Rd9RoIuQ9dH4RYP8kB59cVILQ5W8+IbFG6Be8rNezFWAFeySAnF4OCDfHhIxlx917gARcZr1TmssBeyjyb/kjUc+6XiF/0yHgbJSxXok/FYvNp93RVAp/qtPKhxV52+ay6KvwZvhD6CNI7iKLPNIQVTgNJGG738m4Y7ZNipL3ntDHN/PZBy/NnQm/yj8DJpJq7TRTs5ZjQ6/MhKBux3cSOyCcr057/kHf9ZesQsG5BBGFSBFYqHAOoMjmdyumRlBCWYo0EZL8M02VLRIzTxv34oUK1qBZRfO7hWe94Vj/hw7G1D//CHP7wJ69rPbSgR3ij3G9/4xsPPnQr0yZM5aLD6F6Dr5MwhzY/8yI80D1wd2tQeS3I4xDM5CSzjrDGql5fwLURiNBYTvOHdYoWecBi+MbuiBfD65je/uemngAfh5ewRazGCxxDQLXmq0zeDZYjy+mSoFZ4yFGXwjR1vda+9ecCPOWFsNT58M9QKVavPuwL6RQe4SmgX6Leg8EZQ+ZFxNf82Vjdq2yg7pc9iJczhkN/5YsrKURlDY3ip/4k8kRuu0U9eGNqI9qiXUUv/5CznRRrRGUHTa3MrZETb/ZcYGjBweclE1SSWQOxXTFjhHzn424aiCSiy/ROotkIgSmW1J1i41Z+Jx4Myq7Q8hfvu7/7u+OEf/uF44Qtf2LyV8KIXvajZs6BNwdHRXhuKbhNeSrGcisQrCosoq77gC3Ocftno21fZYzznOc+JH/zBH2yOs8ujoEsJGXG94VDlxStQZky8JfqMxT4TvR//8R9vjNk9mag3VjTkLQQMGS1lwmrhdeEWz/Z89mOg+hW62Qe6ArjGhn9zx8gZNznA0Q9a2peMyE2Uob540tYrV9oqQ/euAhrmQNgsYhGaS/ISj2sxEX242peLJLrdXJwatT/EQw6dajeZFjR3yevIUHKOCt8Xqzr9NIiMDpq8049+hokWzlFq/pBFc3Jov+0nMbk/zJS720xpF2lRncHIG6afTZxR/yNPxsiyzzT2I6RUQiuBA5NdYFIosBBE/A1qAgr/aACHIlkVbcoLtAf2HhSmaJUiAeWlhGUMT3nKU+LCCy9sDEuyD+JpPTilEKCUQWjE2OTRZ9SUy2pe46Z8DMspKE8pvOJhnAZS8Kc97WlN2MuTF188AYMrnpVTQgld7eXJi5FZHOxtn+oBa+6LnN45cfWqEi/RpkHRK2xDX6LkDnvguDe+T3ziE82+COiToZCXcvXwGCm54YMXtVgah3pge2APWUDWZEPhqy88iRrqITXQl/K7AmgwKI8Q/uiP/qg5JfUow0HYn/zJnzRX98rVO9wxNjzlDDfKPDK4hCySG3maw6Ujg2Bkh0LA5j73X47fm+9D5l6r+TNMDKt51dhVyvKkU2Gi70MytgzeM6UOVPjZ0B317FK9l4mN/m0B5msCJRPonrBL0Rkag6tJLEU9GhBmKYGJMfHao+tadSPhJbuHaNckM07Kwxg8DBUuUszqG17RtYf49m//9sZQlFsgQB1moM1TWyHRrr6cngoZKSBa2tWYJQbHmBmderR5M6s+j4xGjU9ewh9jw7eTPQsBRaXwaAsDyZMRO2msvrRFE+3iATAyi4Cxl0yFdgyiQFunmcJ+eW0ZWR2umDuPBNAwVjg8LmWHCwdtj1bQVWasteDU4wdl1d9dAbQsKjyzrYE5YkiSbYKydnLIVQtk4zXIpkmHCGKHXRxKfFiVN/e5wWr2ZI0HkjxFy21GJ1Pej7wRU005REZGh1IMp9LQ7OGyfWNKmQ4ZGrpNv1naXBIaQ9N1Vh5hISWwtqKYlIIqo/CEXPfypQi3BxXKAbjVVp7ASmmqrq416drKU1L7JQraxm2Ennl4lIfR2JMop9SMxqLB2IRyPJrJgo8+o/QoQFhGsSk5ugAO2pL+K2zGDzwHLcIr99q0+XVFj4HgCW/FK57k1Xtc8g3f8A1Nf9pX3+gzVHRqLPrHJ4CLlpPOyrsKrywCxQdvWgcYgGdiOHgofik6XtxTfIuREK3A2HlUsi868LW9K1ALmnG6Gjuarng3buBevsak3Qi+VPeYQvPvsBJzq9JDLRpPJGWfmZqPoTLc5ioxvpExjzzWIaNinEnzkBWhlHn/pD42N/g9VN4qOQwlPFeDcvUzCtdSDkBJTUYpg0EXVLt2G7gVQimjlGjALfxa4QE8ZZSshOyeVzPRvEO7n4KiByiiI2Pt0QEmRgjp6oDCvqB4Z3x/+7d/Gz/1Uz/VPFf60R/90eb6Yz/2Y03e9Sd/8iebl6I9AqixScLrWnyKr+LF2BmRAwgP0bUrvMoD+TqgwFOVA2USusp5J7TIrMrsP+XJ0FgYmnHqh2GYR54IKONFGSx8iyBch0K1wJCNRan4UKZfIWf1Wfy35//LAe3JCS9oS/pDW7lU5dWvBIdXEahJiZG6Xwll/xwykEOKr85RfyX3aHQzjHT4McJKWTOwrMsW2Y/5yj6qnfrGEDM19LK/Q7anzzLqlE6TOoPkV1VBw3imGpRk8q3CBigxGKEK7wDXgEuRSzhFp/IUoiaF0KyWvADQhzKKatWlDCZdOQVpr3L6sQpLAM2aJPg1UcCVsVE6Bupee/3AR7dAnT6FWw4Q7LsomdCSwlrZhWFCGldKqD2e8ICmhIYyPCnXDyXWPwVVrv72QBv1Uo0DtNvIMxDhI9rutRPm4Vk7nloYKK/OAQgPRj7FA+O3v8UbHHVoCCG1sxDVAYlxkKXQ0/ygIQH1bV6/HCA30cdzn/vcw3tYyUsMDrdcKzk8sj+34OobfFE6I8MYpdsHe7JROlTAGCp9SdMvGrKkzagd0zlkPs0+L71rc2iikrH5N420kc0qQwM1qXU1oTVBlUyk99WAwVYYR2CELi/JmyTlRUPehFJadSaZwjAeBySMuqAUrwyj6tyjrUwqvnjKtgHpCw08Fh14xRsoHgBDbCuO9nCVo4tPuMqBOvjGpk4CtfBUe+X2jqBo3xUQ5jpiJzP9V+JpjccCUc8N8UCu3pRpywweGviC4x6f9fKxvaHQE//GJ2ykCwwULhx1oK5fLujX81WHQgypjKqMrZ13hWevSO+OFzjC0EoJSvEI0CpmouQJ2KRY7bza4+reaq4tgZkUYOK14c1ceRa4royUMijXjmI6NeQ9tWsrbBlR3fMuFEA/DM+1FI3gy3tRJgaNlj7RUC8pczXOMl55K7yj9mc84xnNfskJozcpnG46ifSzEG8vyDs1VCe1XzFCpxTAPb7ITT2+JOVfLtRYS17ouifn2qfZaxm/OoYhUhBqAvyRGT6Ek+XplKPjlxnky6sXDcCLooN3fcC9K+NoA73QlzGYG33iyVUfdV+8S/Cl4wWOMDSDKmUohRAqUCaDJYRazXgkv7itQwDlldTXxMm7UmgGacX0qpN67dRbmSm5EKcm0lXSFpTBWGnrlM8EScWrpA9XIZATM7T0BQcPdWJqn+fUrZ4RwfEQvfZov/zLv9zszfyC2A9cf+ZnfiZ+7dd+7fD9z//8z8cv/uIvNvdCHkoPTD7e9Ech0AalmHV/VwCvlN6eiSGhqd86OWQsNWaeyElp9a288uRhzBQc1N4ZHWEjwDevxyPWHlMC6IOaoy8X8IEmuQFzhib67atyYKylj8cLHGFoBQYmmQxXhmYFNUCrtTJ7NJ8x8HpTPUdaPQGgaJhAXtAb6AxGWeGZRK9zUXz4JVxQ7U0CxbWP8uoTb6qckigHZVQOPLxVwaNpX3wJufRlgpwC1vcy0DE2/HluxXi1M1Z5oA95huwkDh/yNfnFL0DfGNAA+le/emxfDqCFhqvFyZiq3N7RF6iEjSU3hiYqqTFpW3mJPCymxmGMtgWeN1rMagFl1O1HGtW2oJ3/cqBkjF99VH61nPRTi7PxVrvjAW7T0ICBAIOy+nsuZdWmkIRPQU2sdwT9hMJvlUywh55WRokxOpHzlr139zx01KZWIrSFpY69a3Nbk9iePHj60y+a9ZMbYSTFYISUHm088JiMBqCjvVXTym7TrUwo5FSy6l0ZDy/NKxiHcpNJFvL6Zohw/vqv/7oJf/Vdig9Hqntt3Re0818uVB9kYTwVzhWYB/0D3o7Xq1Na4NrO2xuRPX4psTHW6SP+yZ2spHa7Nqy+P1YouTB048KLBNp9SsYGT/7ukOdXCo4wtDbjpTilMH4v5KGqFbLK1DMob2IzNk/2vZ3+lre8pXmH0Nvcf/M3f9M82ZfXBpRBCePshern7m2h1rWUpsooA4+F/l/91V81fQlHvQql7KKLLmqMkMIUnybGImEMtSJSPg+9S1EZP+USdhkLWl7RYkwenNpXKjNG7zj6VYHf59VJX4G+QPUDSo7AVarxqGvn27TadW2cai+U42kYlHHq02JjUYEnQrAHq/1om37l4TjkqDIgWgDaCOvrIbU+iw9Q+EC5+9U4VV64VdduW7ypM99S3YPCdWWIlVffblP490Y4wtDajJaCAxMofdu3fVvzdgOvYKAEJBm8DbSQw5vwlN2Kb+V/+9vf3ni1UgR9aCtsc6BQxguqroTnWkkfjIFymXQeh/Lrq17PkWd0tU/TpzaUSV9CreIbL97EcLCh/yrXr3fuLBBoWiQYnj48Z/NWgtAXPwyQIWrjvnite/SqDH1QeHUP4IHiwRVOlbVTu55R1xsy7ktmrqD2VkCbgqIN4Dp9ZJx4IxdlxZOIw7ahzeNqWqvvtS9e2rC6bdEE1abKtK321Ydrjb/uwe31VVd1RaPuq/4rBV8c6Z0AXsCJnOcY9Z2JYthgayC8nJW17cEIqARi8oWiftNURns0MPmUgGJ5K8TJH8UAQlnho1VYvs2PPimhk0SvbWlTQnb1bKhOGXk8+JXq4MWhjxM4e0wGjC7gjb2raLVHC7iWkRceKLkor7r2vbEB42zjghoHqDJQ5YygDK1AHg1jqpeggTLgXvuiIYSGWzSqXpQh9JTuCNDWrvoA8lVePAH5Mui6r2stRFV2R1CLQ20tqi9wLHTuaTgmQ6PINt8+W+Dtc97NqVVtyEFNHqMg2LonCPsBb8B7054nYbjtibk9YLDaAyssGgynlAiN6g8oc8zvnUeLgrfvKaN6gi88eQZTL/YKYWs/g0YZOJBXLpSCh64XkOvtk/aEwq1FqCa/zVu7/7oqN86SV/GKlvI2feAeDu/O2Es+7XKLYZWDqpP0QWb4EyXY7ymr8cKpPV49MjkaqEe/+Jfkqz9gLEAfcKsv41MHH09VVzSPBtrBa0cxQL4SWE2rnf9KwBGfMrgjwGxbgPZB9iiO0YWHVn3epQRoMCa8XvcxafYMJlZ7qfDa4F4fvrzkq1vouWfQfrrioaY3/esNDn3jBZ6JEpYyQoZt/0HZ0Cxho1VKVYosOT0VNjoUqYMdeHD07e0OHtjhgb2dsqKFtrz+HdbYM7oHZODAhydvj1m+eAb6d7hUnhNd4xCyg7ac2uMQzgqZ3Su31yRj+18LgX7gqWvPjWTcFgX7UaE/3FJ6oad9LRnCLd5vC+DbNrRfrRMxaO/Us92Wvvjlt6inZEemthF1X3yAo/UL9C2EdwrOGWhnzp1k2y6g+X8Nx2RoJqlWaoMrQQizCE2qo3uCBjbiFNKk1SYdtHEIAr0C5e7L0Nyjiwal81sx7SkJwTK6Ov3DHzyCthIrw3dNIFqVb49BnsKjIzlwqXau6KFrPNrU5KEjKUMDfQaKXzg1RjIwfjigeKi2ZezG4l558crLqmv3WVdl+PPIoQwWrjwDL1oFxY+y4hcNY66FRXuAhjG7tmncFqDjuy1w8VN0zUF51ZIn+hZkvIHiqaIJfN0Wz7cFJQPy9mpf9SGRt/m6rfbK7mhMdycck6Fhri1EeSBfTMvXINqJUO3dCL1waqLVuxZUXRmaFV47gvNrZ2GbvlcrZAkZmMyaSKC8lNzVvbag+KsJLv5KYQsPFM/VX7sdUF59KWuPq6D6LxpwKqkrnOK/yuAXf0XbFY3i08JDTnivvl3LeNBs8ydf46xr0QPw2v3fHqCr76KzGrd4Afqtvl21ZejVpo17R1C4eLbItvkFt0dLub6/UnD7krsNIMCaKOBaA3Et5msSq7yUQMyvvfpSsMI5GmgDX7u2wqDZ7te1BE3oBe3+pOK72hRPytt1yguq7eqknSsonooWqD4K2vd4qj60UQeqzH3RadODW/jtvuQtSOi2+1FuDtBVVvU1Vlf3pah1X/se7aqP24OSr3YFlXdFt/hxX7iu6kDJ7476akPR0Iahy1c/x0LnnoZj4qQmoBKoQR0NSpDVDp22ENBQXgKrfEHlKcvqerSLLlAuVZ9AG2VtPNfiQb7q676gXVZ4oBSn7m+Lr6pv02u3cS0+23iUtnhrK3CbfpXVffVX9IofULig2lRZtQPtvLpaIKvtHUHRLN6LlquEvvoqB0WfkanXtsZwZ6Hw222Ll9uDo9XdE3BMhtYW0N0JRZe3KmGDtsDl1deqRVDwavUfw90P99R83xfhmAztnoJatYU9DIgxuSpjSOqtrkJPV+XKwFgZxnA8wL3C0ADDKg9mr8CgPPtyPO1Y3FG9o3XPsRhZhRq1ZxvDGO7NcEynjvckVCgotT1aHdszPAbG68kzsDrwaIeYYxjDvRHuFYbGoMqjtfdn8hUaujIuZRVKAvlqM4Yx3FvhXmFo5c0YE8Mpb1ZQHq3AfRknaOOOYQz3RrhLrqAUva6gjMS1Ut23jQOUgdSVkQH7r7aXKiMrenXSqF21HcMY7s1wtxhaQRlTQRlC7aHqvtoVvmvlj3ZfUPTGMIbjBY7J0Cj76rCt7l15IalOAtuG4uqQgzeqcm2k8lBjGMNXKxyTodU+CtRVmTfnvYTrXcYyuPJCjMub8PJlhGVodUQvjWEMX81wTIZmD9X2PmVkfhLi18f1N8sKh+H52b+/FunX0GVgjI5xjU8Mx3BfgWPScgbESOrQws8SfC/Er5D9INMnyhidn8sAvw9S5w8q/Nu//VtTx7C0r5CxDG8MY/hqhmM63q+wUGJkfsbir334xbVf+fpLHz7i6XMD9Xlpnwnwg094PqTj0wF+DFj02ieKYxjDVysc83O0CheFgj5B7Su+vtTrN1DCxvpalL2Yzx34da0f3/nJhU+hvfOd72y+AOyjMrwZemXAYxjDVyscod0UHjAAQPnL05RBMBjhop+9+9YGI6vfQKkXNroyxvbhCBwhJMP0AVRhZPXT3vdVWFp9V/u6alOpDerb5a7a132bTtWByhftuhas5qHwK1UbdW1cqQ5+5AuqnbLKg6JR5dUPkC+51BUULih813qDxn0l92286su9A6vKo1/47b7aoC2AU3OnjfYlB6Bevu7vy9B76Utf+uuH8oeFRsAldKEdQZk87xYyMt9orC9hqSdcuL4DYU/mozU+2iNU9G0NLwKjx+v5loW38H2k08/kfX2pFEP/6KGlrN5rpAjtfmpCgTbtSS5QhmbxXQqAjvLCKTx0CywmeC162qDjWqBN9Sm5lwoXzzy5PNrFJ9zCUVY05F3hVL76KN6U1aIGr2hUXb37qU2lGlsbF8grh4Om+uqv2hUeaPMmwQdlpEC5tgXol7y1vS/Dl4SOBFUTIBEwYREUL/Tnf/7nzbfpfWGKAEvoDj7U+8CKOt+K8E3H17/+9fGSl7yk+TgPPMrgRWEhpNDTx3YYrL5KeUw8g/bIwEQyTDzB8wk435uA6zsc6PrUHAP2UR70fWPSXhHf9RkEf2lTHz6Agzbe/YH5+t6/rx77orJ+7CtrXD5648Mxfj2gzKMKuH5R0F4k8KNPC4tfGfhgjgXGx4jw6+MxDE+9DwAZWxmH/a16+14860s7NPFjzP5Ulk/L+eBNzY164xOu+94HWj6Bp9yfn9IOvqjD90P0J9LwkVhy8MEgMrOokLPxaUcmZGrRND5zaeE0Xt800V69vbY64wbqzIM5qa+D6RPI35fhCI9mUgGB11WZiaOEPiTqjz2YOIKTTDRlJGyhJOVVrq3v2/sC1ste9rLmc2YmAag3wSaRF+TZ3FMedQzRPs+ezqe9KSHjYWgeFSin7JRPO/2beMqJhr9phlcKDc+XmYStDmv8DWR/46wMC38OaiwgvqalzuKAX0r0sz/7s83Bjr8/4OpLxR5j+DKUk9aSg7FcdNFFzaKgTv88OgUlCzTRdzD0xje+sTlIwoMybXzG3NehfJTV2I1DW0bq68++qc9o6qtWlRgnfhgn+fr0uvkhI+3tmxkGQ/MBH/36+ZGPpgr/GWgtUGj5AjMeLSjwyRxdi5rDLXThMyZ8WlTwb5tgjixAPkhb35qsdF+H2wwdKU0bfNaNorzoRS9q/nJlKZZVkDLzEFZHRoaGSWOgriaN4F/5ylc230OkvNpa3a2c8CgXJfIVJO0pkL8lDZ/X4xF9/Uo7vNjn+QsuVm+rLIOhDDyD1bk+G/fiF7+4wXUKCnzC2+GMvwLzhCc8oVFEe0qPHp75zGfGC1/4wsbz6UcZ+gyAkhmHz9Dx0nilqOUNjcGV4qHPAzJ+RnL55Zc3Rut7/uhYDHy/H23fm+QVjJsMLWI8vK9JMTofirXI8P5kyBAoMiU2B/pkSIzVQkIGjAM9NBhJ/WF5BmXBsbA88pGPbAzPgsAIGQ7ezJeoRDtyMS79WQj1hSdteFb86NM86gM/+jYehmexLLlI93U4wp8TDCUXalF4964mjhISsnuCc4VnkigHoSszqRWGuMJlNDwDBa5wyZXC+PYgJffNRPj6RFe9trXPQQ9vFIZC+2v9viMoPBJuwdWeh4XLw/3Zn/1Zg8cjKBeuMQT9M0irMXBP8SgLhaOIvJc2lIxx+Os0jAUeZS1+8KadhFflAD/CaPe8jLCqFA9dY+AdfTad9+ARLCoe/POw9dd79EnG/jabsfO42lNktACjYLw8uTFaCODwmAyHIZKvcZI5ecnjF5BVe27Q1pdF4h3veEezaOCJoWujvbEA4yYH46z5du+KlvoxrDK0UhhCLCNzpQS8BuUDykyKZBUzCcI4UDQI2tUEWgntI0xg0VRvv2BPIKSjLAzMJKmvybJiy6PlSlEYtS8V8woWAXzAg18Trlwoy6NJaFrxhTcUpkIdbfGIl0qUFq7+GCSP5EOtlNz3+vVR4wf6hStVGX4pt0WEV+JlSy6Ulbf2pWc88g7GTj48jH2crzGTLUMxtnrFjacu4wbGVQsM8Jl1Ze4ZGCO2uNSiog/4leDih1FoYwx4IWfG/tjHPrZZeISmZIEHY2BsZOWqDZ54MnUSKOMtmdyX4UuWG0IxiZQJyAuRCNXqSwmVldLYp6jzhV2rbxmJK6AY2qGLTgme8liBhWImhJdQrl/tS5EoQU2ccsrBKBl2HZaop8z2H0Iw/FAIoZ7VulZ0oS3DdnAjNLTvQVMIaZ8jRLMnVM8AeDe0GR0cCigsxCMFA8VvjZfC1hgpntALLR4CKIdD8Rkwb8lras8D+jhs/UFBsmZseHfVjrFb8Eo++meoQtk69MAbnoVxyoyfEelH+GjRID+Lp9C7Fhd1+EDTlQzVSQzP4oU3CycawniLljGRAf4Ysrb4Q6fm7r4OR+zRAMFIBOdaBkUhTLLTNBMvPFFO+azAJo5ymJCq4+mESJTU6k3wJsVEmCSbcautvYh21X/1Ddck18GEcpMvDJNMKkUxwYyPMlMooRagBIyRUTsJpZDGYxzqGI1PRrvqRxhKofXnbwPgQbm2DiEYh2QcrpQaoIk3PJAThdRO3gKiXwuGsda+lMzUAW2Nxf6X58AbY+FB4NvLWSTwoG9j1od2ZCShRQ4lP8kiiEcLGfm5JwsLUBmR/WstXPaU9qISPOX4IlP8GwcZl6zNAZ70W+Mge9eSCcDTfR2OON4nGEKpyQKVpxwUwIkZZRS6URyTDMfm27MxEyAs0saDaZMmnCnBS7wK70OJHD7UZrvqK++KfhloQd1L6BYPynk4V+UUDMirN4b2tcIeCcDXluLIF231ykHha1/3lYePdjuvnfo2/0CZVP3Ao9wUusZWODUm+XZ/6OMVbuUBfGODpxx9UPy4FqiDhw909K+98hqDevniFcCxyKqrseGtQD/F9xjuwNAIsCai6nkIm3arvw06b1XCtlLaONsXWC39kQFGV/soK6NnMwzSCaHQpm1k1Q/Qb3vCARpwSmHa7drX1aA9JVGPRk1+G1cdKDqV2gZXZW0c5eqV4beUHRT9dnvQLq980WrTbQOelVV/hVvloOi3jbfy6vQlVR/tvssgi7666kOqsja0adXYi46ygtXt7osw0uBDUMIhmBJO5SX1wkIbZGGIPY1wkWAlIaUQxn5JEgYJCU2CCbcn4+WEamhU6AWqj1Ic+LUPAuoK2opQSmaC28rSHot75aDoq6+yol3XNv3Cx0u7fPUVrJaftqv5AfJSlbtKbX6qHZAnw8JRXzSUu4LCKWMnQzzAJ5tqA0dZ4ShDt+oloG3NQfEC5IsXV/j6RMvVffWnn+rrvgxHGFpBTSRB1gRUOShjs1fwgJOxEbjjYHsvR/a8nYMOIaUJY3gOHzyj8QyLAdZkVV81gfAL3OvXtfioeuXVTpk8gFdGJ8Fr05RXX0rmvuhL9iWu2hUdIA/a/chrL18runtJKFiAfvEC2jSqTL7upQr/JPiuBVUGr9roXxmDa+O32xXgs9rgs9rps8asXeVrHoDykhl88qo6+DVWebi31f99DY769n5bQDWhEgFKNs9CRadaHloKGXkrD6/hOdlzrO14mNExPm/t17uP7QmpiVVWV5Oo39X18qDK4SgHFEdeWdEuOgxLmVT4hQfatPRFmaoNZUIbVH21K4OtMn0C+dU03cvXfUH11capeuX6buMr0wZUf/ox1spXP1UmXzwB7dBsy0AZusrb/MCRL75W54tHZUCbag/qel+FO/yZDAEDgiI8qx6BKjcpjs8ZkeNxey7ejMdT53TqTW96U3O66EDEa0xoSOjVpJhY+O0Jr4mpyQR1hVs0tGkrAag+4FX5anz3t9VOXjnlrH6qHsCva5tW9UG5yrDbtID7audaPLQT3GrXxikeqqzu23l4oMrggqJV13ZZ0S9ZFV57kQFtenVtQ9GT0AJoKB9DyuyODK0NhFgCL2ETKs/mRJKnEhJWHWCIHgw7DndcfTSoybq74Z6ie1uwuq+vZN/3JHy1jOP/Co7J0ACBS1Y6gpevFaxd5lora3nBMYzhvgkR/x/jRkMeqweXygAAAABJRU5ErkJggg==;" vertex="1" parent="1">
          <mxGeometry x="568.47" y="582.7499999999999" width="72.08" height="29.1" as="geometry" />
        </mxCell>
        <mxCell id="PDopcycZYU54J8PSpkbe-22" value="" style="group" connectable="0" vertex="1" parent="1">
          <mxGeometry x="957.5" y="496.5" width="110" height="120" as="geometry" />
        </mxCell>
        <mxCell id="PDopcycZYU54J8PSpkbe-23" value="" style="fontColor=#0066CC;verticalAlign=top;verticalLabelPosition=bottom;labelPosition=center;align=center;html=1;outlineConnect=0;fillColor=#CCCCCC;strokeColor=#6881B3;gradientColor=none;gradientDirection=north;strokeWidth=2;shape=mxgraph.networks.tablet;" vertex="1" parent="PDopcycZYU54J8PSpkbe-22">
          <mxGeometry width="110" height="90" as="geometry" />
        </mxCell>
        <mxCell id="PDopcycZYU54J8PSpkbe-24" value="Grafana" style="text;html=1;strokeColor=none;fillColor=none;align=center;verticalAlign=middle;whiteSpace=wrap;rounded=0;" vertex="1" parent="PDopcycZYU54J8PSpkbe-22">
          <mxGeometry x="10" y="90" width="90" height="30" as="geometry" />
        </mxCell>
        <mxCell id="PDopcycZYU54J8PSpkbe-25" value="OpenWiFi uCentral&lt;br&gt;Controller" style="shape=mxgraph.cisco.wireless.wlan_controller;sketch=0;html=1;pointerEvents=1;dashed=0;fillColor=#036897;strokeColor=#ffffff;strokeWidth=2;verticalLabelPosition=bottom;verticalAlign=top;align=center;outlineConnect=0;" vertex="1" parent="1">
          <mxGeometry x="564.51" y="504" width="80" height="35.5" as="geometry" />
        </mxCell>
        <mxCell id="PDopcycZYU54J8PSpkbe-26" value="OpenWiFi Client Version" style="text;html=1;strokeColor=none;fillColor=none;align=center;verticalAlign=middle;whiteSpace=wrap;rounded=0;fontSize=15;fontStyle=1" vertex="1" parent="1">
          <mxGeometry x="465" y="340" width="190" height="30" as="geometry" />
        </mxCell>
        <mxCell id="PDopcycZYU54J8PSpkbe-27" value="" style="rounded=0;whiteSpace=wrap;html=1;dashed=1;dashPattern=12 12;fillColor=none;" vertex="1" parent="1">
          <mxGeometry y="780" width="1050" height="320" as="geometry" />
        </mxCell>
        <mxCell id="PDopcycZYU54J8PSpkbe-28" value="" style="rounded=0;whiteSpace=wrap;html=1;" vertex="1" parent="1">
          <mxGeometry x="10" y="810" width="380" height="250" as="geometry" />
        </mxCell>
        <mxCell id="PDopcycZYU54J8PSpkbe-29" value="Test Environment" style="text;html=1;strokeColor=none;fillColor=none;align=center;verticalAlign=middle;whiteSpace=wrap;rounded=0;" vertex="1" parent="1">
          <mxGeometry x="142.5" y="780" width="135" height="30" as="geometry" />
        </mxCell>
        <mxCell id="PDopcycZYU54J8PSpkbe-30" value="" style="rounded=0;whiteSpace=wrap;html=1;" vertex="1" parent="1">
          <mxGeometry x="400" y="810" width="90" height="250" as="geometry" />
        </mxCell>
        <mxCell id="PDopcycZYU54J8PSpkbe-31" value="" style="rounded=0;whiteSpace=wrap;html=1;" vertex="1" parent="1">
          <mxGeometry x="500" y="840" width="360" height="170" as="geometry" />
        </mxCell>
        <mxCell id="PDopcycZYU54J8PSpkbe-32" value="" style="rounded=0;whiteSpace=wrap;html=1;" vertex="1" parent="1">
          <mxGeometry x="870" y="810" width="170" height="280" as="geometry" />
        </mxCell>
        <mxCell id="PDopcycZYU54J8PSpkbe-33" value="" style="fontColor=#0066CC;verticalAlign=top;verticalLabelPosition=bottom;labelPosition=center;align=center;html=1;outlineConnect=0;fillColor=#CCCCCC;strokeColor=#6881B3;gradientColor=none;gradientDirection=north;strokeWidth=2;shape=mxgraph.networks.wireless_modem;" vertex="1" parent="1">
          <mxGeometry x="70" y="820" width="60" height="50" as="geometry" />
        </mxCell>
        <mxCell id="PDopcycZYU54J8PSpkbe-34" value="" style="fontColor=#0066CC;verticalAlign=top;verticalLabelPosition=bottom;labelPosition=center;align=center;html=1;outlineConnect=0;fillColor=#CCCCCC;strokeColor=#6881B3;gradientColor=none;gradientDirection=north;strokeWidth=2;shape=mxgraph.networks.wireless_modem;" vertex="1" parent="1">
          <mxGeometry x="70" y="900" width="60" height="50" as="geometry" />
        </mxCell>
        <mxCell id="PDopcycZYU54J8PSpkbe-35" value="" style="fontColor=#0066CC;verticalAlign=top;verticalLabelPosition=bottom;labelPosition=center;align=center;html=1;outlineConnect=0;fillColor=#CCCCCC;strokeColor=#6881B3;gradientColor=none;gradientDirection=north;strokeWidth=2;shape=mxgraph.networks.wireless_modem;" vertex="1" parent="1">
          <mxGeometry x="70" y="990" width="60" height="50" as="geometry" />
        </mxCell>
        <mxCell id="PDopcycZYU54J8PSpkbe-36" style="edgeStyle=orthogonalEdgeStyle;rounded=0;orthogonalLoop=1;jettySize=auto;html=1;exitX=1;exitY=0.5;exitDx=0;exitDy=0;exitPerimeter=0;" edge="1" parent="1" source="PDopcycZYU54J8PSpkbe-64" target="PDopcycZYU54J8PSpkbe-38">
          <mxGeometry relative="1" as="geometry" />
        </mxCell>
        <mxCell id="PDopcycZYU54J8PSpkbe-37" value="PoE&lt;br&gt;Switch" style="shape=mxgraph.cisco.switches.layer_2_remote_switch;sketch=0;html=1;pointerEvents=1;dashed=0;fillColor=#036897;strokeColor=#ffffff;strokeWidth=2;verticalLabelPosition=bottom;verticalAlign=top;align=center;outlineConnect=0;" vertex="1" parent="1">
          <mxGeometry x="190" y="909.75" width="70" height="25" as="geometry" />
        </mxCell>
        <mxCell id="PDopcycZYU54J8PSpkbe-38" value="AP Data&lt;br&gt;Crawler" style="fontColor=#0066CC;verticalAlign=top;verticalLabelPosition=bottom;labelPosition=center;align=center;html=1;outlineConnect=0;fillColor=#CCCCCC;strokeColor=#6881B3;gradientColor=none;gradientDirection=north;strokeWidth=2;shape=mxgraph.networks.virtual_server;" vertex="1" parent="1">
          <mxGeometry x="410" y="882.75" width="70" height="79" as="geometry" />
        </mxCell>
        <mxCell id="PDopcycZYU54J8PSpkbe-39" style="edgeStyle=orthogonalEdgeStyle;rounded=0;orthogonalLoop=1;jettySize=auto;html=1;" edge="1" parent="1" source="PDopcycZYU54J8PSpkbe-40" target="PDopcycZYU54J8PSpkbe-51">
          <mxGeometry relative="1" as="geometry">
            <Array as="points">
              <mxPoint x="880" y="922" />
              <mxPoint x="880" y="1015" />
            </Array>
            <mxPoint x="860" y="1150" as="targetPoint" />
          </mxGeometry>
        </mxCell>
        <mxCell id="PDopcycZYU54J8PSpkbe-40" value="" style="sketch=0;outlineConnect=0;fontColor=#232F3E;gradientColor=none;fillColor=#7AA116;strokeColor=none;dashed=0;verticalLabelPosition=bottom;verticalAlign=top;align=center;html=1;fontSize=12;fontStyle=0;aspect=fixed;pointerEvents=1;shape=mxgraph.aws4.action;" vertex="1" parent="1">
          <mxGeometry x="782" y="898.25" width="48" height="48" as="geometry" />
        </mxCell>
        <mxCell id="PDopcycZYU54J8PSpkbe-41" value="Crawler VM" style="text;html=1;strokeColor=none;fillColor=none;align=center;verticalAlign=middle;whiteSpace=wrap;rounded=0;" vertex="1" parent="1">
          <mxGeometry x="400" y="780" width="90" height="30" as="geometry" />
        </mxCell>
        <mxCell id="PDopcycZYU54J8PSpkbe-42" value="Main Server" style="text;html=1;strokeColor=none;fillColor=none;align=center;verticalAlign=middle;whiteSpace=wrap;rounded=0;" vertex="1" parent="1">
          <mxGeometry x="635" y="810" width="90" height="30" as="geometry" />
        </mxCell>
        <mxCell id="PDopcycZYU54J8PSpkbe-43" value="User (Development)" style="text;html=1;strokeColor=none;fillColor=none;align=center;verticalAlign=middle;whiteSpace=wrap;rounded=0;" vertex="1" parent="1">
          <mxGeometry x="905" y="780" width="115" height="30" as="geometry" />
        </mxCell>
        <mxCell id="PDopcycZYU54J8PSpkbe-44" value="ARUBA APs" style="text;html=1;strokeColor=none;fillColor=none;align=center;verticalAlign=middle;whiteSpace=wrap;rounded=0;" vertex="1" parent="1">
          <mxGeometry x="20" y="930" width="42.5" height="30" as="geometry" />
        </mxCell>
        <mxCell id="PDopcycZYU54J8PSpkbe-45" value="API" style="text;html=1;strokeColor=none;fillColor=none;align=center;verticalAlign=middle;whiteSpace=wrap;rounded=0;" vertex="1" parent="1">
          <mxGeometry x="760.49" y="950" width="90" height="30" as="geometry" />
        </mxCell>
        <mxCell id="PDopcycZYU54J8PSpkbe-46" value="" style="group" connectable="0" vertex="1" parent="1">
          <mxGeometry x="907.5" y="830" width="110" height="120" as="geometry" />
        </mxCell>
        <mxCell id="PDopcycZYU54J8PSpkbe-47" value="" style="fontColor=#0066CC;verticalAlign=top;verticalLabelPosition=bottom;labelPosition=center;align=center;html=1;outlineConnect=0;fillColor=#CCCCCC;strokeColor=#6881B3;gradientColor=none;gradientDirection=north;strokeWidth=2;shape=mxgraph.networks.tablet;" vertex="1" parent="PDopcycZYU54J8PSpkbe-46">
          <mxGeometry width="110" height="90" as="geometry" />
        </mxCell>
        <mxCell id="PDopcycZYU54J8PSpkbe-48" value="Grafana" style="text;html=1;strokeColor=none;fillColor=none;align=center;verticalAlign=middle;whiteSpace=wrap;rounded=0;" vertex="1" parent="PDopcycZYU54J8PSpkbe-46">
          <mxGeometry x="10" y="90" width="90" height="30" as="geometry" />
        </mxCell>
        <mxCell id="PDopcycZYU54J8PSpkbe-49" value="Multi-UI Version" style="text;html=1;strokeColor=none;fillColor=none;align=center;verticalAlign=middle;whiteSpace=wrap;rounded=0;fontSize=15;fontStyle=1" vertex="1" parent="1">
          <mxGeometry x="450" y="750" width="190" height="30" as="geometry" />
        </mxCell>
        <mxCell id="PDopcycZYU54J8PSpkbe-50" value="" style="group" vertex="1" connectable="0" parent="1">
          <mxGeometry x="900" y="950" width="120" height="130" as="geometry" />
        </mxCell>
        <mxCell id="PDopcycZYU54J8PSpkbe-51" value="" style="rounded=0;whiteSpace=wrap;html=1;" vertex="1" parent="PDopcycZYU54J8PSpkbe-50">
          <mxGeometry width="120" height="130" as="geometry" />
        </mxCell>
        <mxCell id="PDopcycZYU54J8PSpkbe-52" value="OpenWiFi uCentral&lt;br&gt;Controller" style="shape=mxgraph.cisco.wireless.wlan_controller;sketch=0;html=1;pointerEvents=1;dashed=0;fillColor=#036897;strokeColor=#ffffff;strokeWidth=2;verticalLabelPosition=bottom;verticalAlign=top;align=center;outlineConnect=0;" vertex="1" parent="PDopcycZYU54J8PSpkbe-50">
          <mxGeometry x="19.579999999999927" y="14.5" width="80" height="35.5" as="geometry" />
        </mxCell>
        <mxCell id="PDopcycZYU54J8PSpkbe-53" value="" style="shape=image;verticalLabelPosition=bottom;labelBackgroundColor=default;verticalAlign=top;aspect=fixed;imageAspect=0;image=data:image/png,iVBORw0KGgoAAAANSUhEUgAAANoAAABYCAYAAACTZekIAAAAAXNSR0IArs4c6QAAAARnQU1BAACxjwv8YQUAAAAJcEhZcwAADsMAAA7DAcdvqGQAADwISURBVHhe7d0JtKVHUTjwuve+/c2ezJJ9kpAFAmETAQGVXUBcQAVRVBSPHPcdceHoOXo8Hj3KUf+4IhoEREVQBBSDrMoqECRAIIGQfZvMPvPeu+/d+6/fd6eGbx7JJEMSzJBbSc/XX3d1dXV1VVd1f9/9Xqff7w9jDGM4TmGY2tuNG2Lvrg/FcPHK6C7sjO7KwZjoZnlvMroT89Gd2hwxsyVielMMJjfGSm9DDGJN9FZmsm0vhh2UujGUz5puZ7m5i0ESGU5kymtnZCbDToMcncRLhCZ/Z2BsaGM4jiFNoztMA7sibrn6TTHRvyJmhruiO1xiEWk7k6nhM7GcBrXcmYvh1JqI+ROiu/akmJjcHPNTW5NGlnXWxErMxmA4E4POIDqHDK0zSBrDpMHQuitZx7Qyn2bWHSYeY7yTMDa0MRy30Inl6A2WYrB4Wez4/OtjeuXKmOsezIph1kzHSnqkNImYSAPpZdkwjWWx040D3alYSuM6cd050Zs6NXozZ0Vn6qSs3xArnfRgaXaMopvG2kkvx9CG2X5wKKUJRk/dyBXeKRgb2hiOWxC+daIfneWrY+81b4s4eHlMDHapSA821RhLJ73bVByMqWEa4GCxMZSVyV70ebrl2ZiYPjkmZs6MiTXbY2L+jIiJrenZ1ibl9GTap3HynANhZDcNt7ucBszjTSXtNMI7CWNDG8NxDSv533R3byzvvyyW9l6eFrYjjSFtaln06J+90V3akWlnGiEDGeR/S9kq8xO9WFrupfGtj+70lpicS4Nb++DMn3/IuyV2N8PQbrZZnsi9Wye9YxrrMOmmoTb7tzsJY0Mbw3EMqbrNOcVCBnj70sh25s0CC0sLVJEh4HBfrPRvjeWDO2Ji6UAMFnZGf+G63IftyrQ/cZfTAU4lrek0uHVpP2fH5MaHpIc7PwYT29IkJ9Ik09F1erlNW46J5aXoTk2msfGn9mt3DsaGNobjGA6d/KWnmugyrjQy90K6QXqbnj1UP60kw79heqKDe2MlPd6w/4VY3PvZGCxdn2Hnnqx2SslsctfXnY+V6VOju/5hMZlpMHla9IczWT+MieFKdBdzb9adSFtOX5pldxbGhjaG4xioruOKNK4De2Lhluujv29nRnppFBPTaSjro7duY8TkbKI5xu+lkSxk2HhjOrJbYrD3+jS4DDeXPhO9lVujN+hHtzcRCzEbS1OnxuSGB8fs+odGZ+qM3KNNpG+bTq+WvWU0GdMORuzf7hyMDW0MxzGkkXW7sbJ3d1z7sffF7is+EYNbb47J9E696enozM3GYHZtTM1viS0nnx1rTj0ry2ai3zsQvYwWOyvp5Zavif7u/46l3ZdlWLgnveKB9IDpB3tzsdTbGnMbHhazGx+WYebWNLYMLYWYy+kpnZXYA95JGBvaGI5b6KTmOvdbuvbK+PibXhsTN14Xc4vL6ZUGcTD9Vj9DxkGGlBO92Zie2RDdtSfECWefExsvuCC6mzenk5uM5dzD9QY3RH/vp2Lp1kvSIK7NiHNP7sEG0R/MpTc7PeZPeGj01j4oI9JTMxD1sHvkRUcPre8cjA1tDMctNMcRK2lQ134+PvzqV8SGfXtjbT+9TVrg4sRyrPSWMrjs5x5sGN3OZPQ7E7E/Q8qJU7bHlvMvjG0Xfk0MZ9OYJrPN8KZY3ntJLNz6P7mXuyId1v6kn0Y8mI3u3Fkxt+UxaagXZli5JVY6szExSK+Zxnh0QEHKBeGlL33prze5MYzhuINh9Ca7ud9aigM33Rr7du6NtKkYTOR+jKsbrER3eTkmhh5bD3OPlobhrY+F/bHjc1fEviuvjhPXb4rYsD7DxTXRnd6cIedsDPsZQi7vT0NaiO7EUiwvH4x+esrJNZuSytroduey624mPiqNOI3J0T/ocLOjXPOcrZN4HmyPPdoYjltgOCuxGDPpXVZu3hUHPv3piAP7YmlhbxzYvyv277wpYvFgDDMtHdgbs7lvW3E8n15wsjeTxrE2ds7Mx5nPfEZsOPdBaRte2boulvZ9MBZv+mBM5v5t2N0ffcbS2RZzGx8RvW1PiaWVbXk/kxx0k8ZKE8KyueFwJfG9NwIYmdPPvPP/2NDGcLzCigfJ3VTulYWY8/B438HU71TuSQq+mAiLsbh7R+z+/Ofihk9dGgeuvTbml/sxPLg/1qXnWjrYj6X5+TiweWOc8ZjHx5YHPio6E/20nx2xvPMjcfDmDyTt69KcDo5OG3unx9z2b4/OzAXpOdel9UynwXXSwNJbNmHkKCk7bGiHXtMaG9oYjlvg0Qapy8sry9FbiZieTI+Vir2Siu7l4KHHzcMMHZcyBMzr0mc+HVe9/wPprW6MXnq+mWEaWu7h9kx0Y2nT1jjtUU+MUy98ZOPYIq6JvTe8J/dt/xvTcUv0BunZButjZe4Rse7Mp6YxnRzLwzWJN9EYGug03iz7be6FjAzNe5LjPdoYjmPopiJPDibSCCYznOvF7qXl2NXvx97+Siyl/1jJuo53Hiemotubjt6GjXHCWedGf6Ubt+64NQZL+3If1o+ZjP2WFw7Ewf37Y/2GU3IvdkpaxnS2S0NeuDW6/Z25L1vMNIyFhX7Mzm9IZ7Y5OZhLo8r9oD1YN8PIbnq33AMyNO+MNP96HyxhbGhjOG7BIXt3OdIrDePynbfGOy+5ND56+RfiU1ddF9fcuiduObgQB1PpVzKcHKbhMMyJmbWx7qQzYk2GjLtuuT4jvX50ltJ4Emcl93L9fifWbTkjenNrYmI6w9Hl3TE4uCN7OBid3nJMChWzz4m129OI16RRTaX35LXSbWUom7FmpvRsDKyJGv2TnI4NbQzHKzRnianH1+9dije8731x6U3Xx47l5dixuBRXpce6/Kab4pPXXRc37fFOYzc2zMzHTG8mjWAiZk7cFHPzs3Fj7tsm03C6/aXoLB6Ifhpnd2ou5rdsjeH0VExkTLqysCs95O5stxCTsRzLS8OYWnNGuqmNaXxzGSx6MRlDQsbRG5AjP5bAMDMdvh/DGO4OEDaNDgPuefDLsMWV3Il1+2lst8TBqU7s7g1jb68bC5OzsTAxF7uWe/GJa2+Mt37ko/Guyz4b1+berD+Re6f0bGse8PA4+SGPjsXJuVhJY5npZYi5b2fsveKjsbjj2tGLydMnRW/+rDSf+bSjNJqVDCGH6fn235C9H0gu0oMdMrKBsTfm72j/EIceKSSMDW0Mdwu0DUx+dCBgQR+dyt0TQIk7k4OYSAPbvGV99pXmkvukDl5Sv7tpKMNBLxZ7E3HzYDne8ZlL422f+Hjc0l/0I5ncZ62LLQ/62pg/9YxYTC+2lGV+SrN801Wx+/OXZky6kDTXxXR6r4mp9Y0B9ZwmpgHt33ND1qWnHGTgany1thhqM9wvFvjR6Dh0HMPdApStl/ucMizXdv6eAFQdQHQyzc7Nx7rpuTht7aY4bc2m2BATMVj0AvFyLPm0QW63Brl/unXXzgzzOrFl67aYm5iIdIAxPTsdt95wXSwv7o/ewB6rEyvTszF30skxkbRyoxaDhSsi+jfmNozxTke/MxWza05KBjYnvZmMTPmyYfNrbgaJu+ZX2enKfItkbGhjuFuAMQ0Gh8Kk5gSue/ieAd4TXk145nMDvU43Nq/bEPfbvDXO2XBiPGDLlti+cX1sXDuTId9y7O/vzxBzKXppWH7MecPuvWmYc7F904boLa9Ed82a2L/jxkzXp0dLwsOJ2J/8zmzbGvObtmVHgxguX50OTn0aUCZ0pmY3R2f2tKyfb4y3Mals1z30NghDs4dMCYxDxzHcPbDaiwHGBsrg7n6wH+rFdKcXs9nFmux340w3Ns124syta+NR554eT3noBXHBqdtiPl3N4spKHOxMxN6lbnzsk5+Lff1BDKZyXza7Jk448+zopWdzcDEYZri570As7tqRXmwxu5mI7syJsdxbn57LL63TaId70wPekuPtJw9eME7IYTffEWlSmZadJC83hjHcDVBea3l59BxpJZXatcLJewYYdcTKUvaThjbZS8ObyIJe7sDSANZNRmxfvyYedc45cfrGE2K6N5leLb3ccDJ27DwQV1x/c/QnM8ScnIy5zSfG/Jr5xixw21teis7e3c0+zRPs3vSWGPROaM4UnT52Y28sHrwlV5HF5MHv0rTDj1hRQiXvsZkwDh3HcLcAw9q1a1e8+93vjn/5l3+JT33qU7Fu3brYsGFD49HuCWOjxh4ULy0t5l5oEB+65EPxmn94bbzvg+9vDkS2nbg1Znu5l8r91spKN6674ZboC/3SY+F3qrMSZ28/JWbSUCYW9sbgmi/Ewi23xKSTxO5yzKxbE3On3S9i7Ybo9Jbi4J5rorN8XUz09uR40gZX1sXspockF+uyf4ckGcb68tborD/tzc90mFp6wYbjMYzhLgLv9aY3vSn+8i//Mt7xjnfEv/7rv8Y//MM/xJVXXtl4tXsKhoN+TEx147LPfjpe/qcvj4v/8+K4+O0Xx6te9ar48Ic+FJ00qDW9bpy77eQ4cWYuplaGcdBp4txU3Lhvvw8dNK9s9Rjkmk2NsXRXFmN6pR/9PRkeHjz0DZLubBpUGqx3GtOoO5NpRMMMK5uw0b6MR7MnY6SJ06wrSSvbNgtC+11HwmrH2WJsocBkulbXCgMWFxdjIjeWFXvv2bMnrr322rjmmmua/NLS6Mhzeno61uRGc+vWrbF9+/Y44YR0vdkGHVf0rSzVp3ttK7ZXBoqv1TE/nooPdegqK9wc2x1O8uoxS0C74g1UeeFWvvpRX21ci646PMpXWfFf7YE65a7K5Gs8lPWGG25oyrXRxymnnBKnnnrqYdpFo/opmRR/2psfbYv+aaedFtu2bYup3KcAbeG6ogsXrRqX9uiUXIsPc3vrrbfGz/3czzU42mi/cePGeP7znx9Pf/rTD9MHcHk8/dIl5e2xgRpLgXyNq+Ry6smnxDlnnxMHDxyMV73mb+M1r3uNLxYkDGIuvdgznvb0eM7znh8zGzfFzpy+17393fGpm26Jg17H6nRj+2wvvvvxj4vT10zH/J4dsee/3h7XvPfiWNM/EP2sH249JU56+rNj/iyfobs5dl77zhjufE/M9W6KlanJWFg5P044/YVpWGflvZNIIWvyPZgcpeYZWyaHIym0w4ZWgwEGbtASQ6ty9wTk/rrrrov/+I//iA/lykHA+/fvb3AIomgRyNzcXGzevDke+chHxhOe8IS43/3ud3hC9QMPXVd9aa++6kApTuGVgrnqQ737uiqvdrcH8ID2AP02VL2rpF/0ihf3En7dw6n+Sk6uylzhwC3Qb5u2ay1qBTt37oy3vvWtjXewCKmDQ47Pe97z4qSTTmraKUdbP8WPMn1r9/d///cNjeKPfL7+678+fuiHfihOPDE3+q0+tS+a8N1ff/318ZrXvCb++7//u5lnPOjrV37lV+Ixj3lM7NixI17wghc0ZQsLC00bYeN3fud3xnd913c148OTeX3/+98ff/EXfxG3ZJhWMlVXV7zJV12BOkkfZPst3/It8QPf94I4cOBAvPzl/y/e9a53Jn0f9NB2EE980pPiud/7/Djx1NOjnzRf/bZ3xGU7dsW+3Kt1BitxVnq15z3lSXHSdC/W7N4Zuz763rjy4jfH2v7+5v3I5Y1b46Qnf3OsPy8NbXpX3HzVu2Nu4ZLo9q+NRbLu3T8N7QWpIGfGIOkv+RRdLxfnNLLewCtfyXPj8XJcoyF8EQyuQJ5ACb0ETvi8lkn7hV/4hfi7v/u7+PSnP92UwakJslIRCBoE8YUvfCH+6Z/+KX71V381XvGKVzSTVYIjWN5vZsZvfDL2TcUohQHq4eGl8NShbeJc9atMvaty6WiA3xoX2q7oAFd9AnSMx7iU46d4qqTu4MGDDd+SeuPQtsZXPJdcKEt7bOrbctMXr3DmmWc27asc3c997nOxb9++hr8qNxbXwkFP2VVXXRWXXXZZQ9s9Xvfu3dvQwJ975TW2ogWKv927dzd0zDN89JXzivqX52HJwFiABRb/6tGTjKM8GR1QVyCPLn1BR77qtWXA2kn4oAc8mB9/nr799FhMI1tO/F5vItbOr02Pd2qctGVr87wMR2vMc4aC05nmfDqun/leLgA6yPBzJfdk+2cnY+dUL25ONTgwOxud+dTJ9FZ+ErM8nImF/ppMG2L/Qu7LYmMaie87JnKmzpAXs8CP9msMjNFn5ZGGVsIltNV5wjd4wvmDP/iDeOUrXxk333xzIwz18EpJa7Jr4oqWCbrxxhvjda97Xfz2b/92fPazn21o1sS5ltJL1Y4yoOdak1F9Vr+S9nCAfk3o0aDaA3Ql/QD0apLxQkFca4z6Avitq/7glIK3x1/0QfGsHL/GU2Os8cMpfiizKAC+e4nsGAqlA/pGUzs05OFRRocUws+iqV65+bv88ssbGtoX38ambfGJP0bG2OAoB4973ONiy5YtzRh5Rd6RsaFtu8BjPupRj2pow0FTX8balo0yRqRMqj5KbvCLJ2XqJfdNm9yDPeWpT43HPO6xsWbt2kzr4qEPf3g8Wt9pdIN+yj0Dt3NPOzVO2bA2NnQ7sS75v2D7mTGfnisl1ficybUbY+bk7XFg3ebobzopTjzvwpg/8ZSs5QDWxvr190vFOCV602fH7Py5MTu3Pe/92hovKSvPy/yaQD7ViKagDY44dcR0CdeA5A0GGJh92O/8zu/ERz/60cOCKaETmv2Y5LRpbQ6YgEtghEVZCUzZTTfd1Ey+kFL4gz56pVzoySsrwWurHChDVyo+tCt+23VHg8KvfoqPdlvXNu0CfeIRrnag7tUVrTLK4h0UPWUMq8q0KUWULxx7o0suuaQpd6+cUp9//vmH2+tbnmEUP7zDhz/84Xjve9/btAElGwrOQB74wAc27bQH7T7g8X5OE//nf/6noa0e/rOe9axmEZBXZg/++Mc/Pr72a782vvmbv7kJKekAGmiRCTx69L73va/RIWVliHQB3zzh/Pz8YX2iN8qEorPpZRgyHTP2+19wfkxbJLL9wx/xiPi6Rz86Hv+N3xhPftKT45STTs7+RuNx9L/1xE1xwqZN6eW2xPnbz4iHnXdOzGa97+hPdCdiZm4+Tti8LTZsOz023++BsfHcC6O3bkssLqf+9WZiemZtzPTmYnr2xJjbsH30YvHUyTk2b/Dn/OksTcupI6uwRxsZWpblpB7WHgwRSoHBtw3jd3/3dxthA8IhdEIWHpxxxhnx4Ac/OC644IJGIIC3uuKKK5qY/Oqrr27CR4JErwT/kIc8JL7ne74n7n//+zd1eCigcIRqQlzda1M8yte9dmgWXakU5WigXY27DFtq91OgvA1w2sqJPzKrcv2TT/ElFci3eZQv+q7tenPwnve8J/74j/+4CZmqjsx+4id+Is4666ymXRkmA9Kve3J3EmgO1NUYgX4f9rCHxYtf/OLG4Ny3eah7NIT7jKN4O/nkk+MlL3lJnHPOOYfHW/NHDsVL0QLF9wc+8IH4vd/7veZQpNoYiz1nGa2+4Vd/2km1aCnHw5ZtfheWi0xOFVqJPDrp03Xuw7ye5WVf9TGZ4Xx6v/2p8rOTuZBl2WAp56g78MJW+qOMhjwTI6PJ2TSTXHyMLWlN+VHnyr40uIWIxT1JK03JX6hZ2ZhdpqHlbXabkHiZmv1Z0mpOIdPsvsTQ2hOBcQM2ca9+9aubkK/AoOGdfvrp8aTcdH5jriJWpJocqYTCIB2YvOENb2j2CnBqYijmk5/85Pj+7//+ZpVCV7k2lMpKjg48NBkxD6iMAVptHRhYudWbKKvgply5rH4WhNuD1YqAJzSFSPq2UNR4rLDr169vPDWjr4kH6ktukhVbe2Vw8E6RLUj6JE99COmE4sYCD314JYdSMNfPf/7zzQHCRz7ykYYngJdf+qVfikfkSq5feK7VBt6ll14af/iHf9hED/ohH/XqJDQyqokHPehBh5VeWwm4dwDyp3/6p83hV6PMCd/0Td8UP/ADP9Dwa67QFM7qQxu0yZ4xkB0oGdGF3//932/GX3193dd9XfzGb/zGYd5A8eK+dFGZBG908JEyyrq9e/fFF666OprT95xOhnbytq0p8/VN/SDvs3UM0tD6w2yfON5zdCzvTz8NBj4NbnFMuXRybtODLaX6ZjZxE9l3+1cspAilV0+zTGvLPWHaQW+qMTJ9oNtoRRpZmmhyl4W3ZWgG0x6s/Mc//vH4rd/6rUahlRs8JT777LPjO77jO+LR6a7hlWCqHVBGwMB+4KKLLmqUxYSUIgo/HAM/9rGPbQSKhnYf/OAH4+Uvf3lzb5WkgIz6mc98ZnPKiY6DGJ7SfgNNhujI+bzzzotzzz23CYsouH6KbvFY98CkUxQe2GJAsZ2kGS+FoVAWFWMWsljJKWmBsVBiPHie9PrXv77JA/uYZz/72c1+xV7nYx/7WNMHeejD2LQlB7RFBg996EMb+njEgwXFyeE///M/N/jKjen7vu/74lu/9VubxaXK9GtcDPo///M/G49mIVJv72QBYehw4PKKaADtyyDMhXYOsTyXAvDh/PRP/3Rz8imsQ1f5b/7mbzbyc689edEP42kbMe9qn0/m+rIQfc3XfE3T3ljh6aMN2gHlxj8y+BFuf3kxLvnYpfEHL3tZ4o3azs/NxrO+7VvjiU94fPTSkyUaZUzvlLzZt6WbSo4aGn7JySAY5HIaGhMZfc8gF33d8nI+O+7rWod0OZfP5t+VYYb5abxoo5lWoHVjtNkQavMe5O2+GWIAkklxwvi///u/jRBKYLzK937v9zZH9gTVbiMVlNC1YwT2FRTM0a5yQnF6JgYv5S3hU/yLL764UTKJgIVJ+HDa+ba3va1Zqct76Au/jqKt5BYIisLTMjbtVk+gdozWETqF+q//+q/GcPWnTqJEFFNfn/zkJ5tDCH0xoFqta8zo2xPxAvo2NmN/wAMe0NAky3//939vZIDvMhpewUL2mc98puEdHWMteTN2+GTiql65dgyY/NBRjmdXPL/rXe9qeFaGxhOf+MTGOBxKlTyU20+hR+5lTMA82d/pV71k3I7W6UDpBPoWAbLjpc0DujwlgwPaAqGoRbSiEHzbejg8QQtUuSRfvBaN0TXrmrthfOHKq+Mtb3lrynt/7Nt/IMfQj/POPy/Ou/95uX9Lx9H8LizxDauhyUy+mBTweM1nw5u/kZa6mUbr2425RDderbG5rG/+htowS5Vl2JmBqZqRgSXdQ5TyrumxKWz6KKhBGJS8JAwyUQZcYFIZmFWoYupqe3tQAnNU7QEmBS2alM0DTH2ZsDJcfADtCBmeCReC2ivWgYw2RYuSlHJSXLivfe1rm8lFA14lODzXP/7jPzZvMjA4fSivPiX03Rd9RoIuQ9dH4RYP8kB59cVILQ5W8+IbFG6Be8rNezFWAFeySAnF4OCDfHhIxlx917gARcZr1TmssBeyjyb/kjUc+6XiF/0yHgbJSxXok/FYvNp93RVAp/qtPKhxV52+ay6KvwZvhD6CNI7iKLPNIQVTgNJGG738m4Y7ZNipL3ntDHN/PZBy/NnQm/yj8DJpJq7TRTs5ZjQ6/MhKBux3cSOyCcr057/kHf9ZesQsG5BBGFSBFYqHAOoMjmdyumRlBCWYo0EZL8M02VLRIzTxv34oUK1qBZRfO7hWe94Vj/hw7G1D//CHP7wJ69rPbSgR3ij3G9/4xsPPnQr0yZM5aLD6F6Dr5MwhzY/8yI80D1wd2tQeS3I4xDM5CSzjrDGql5fwLURiNBYTvOHdYoWecBi+MbuiBfD65je/uemngAfh5ewRazGCxxDQLXmq0zeDZYjy+mSoFZ4yFGXwjR1vda+9ecCPOWFsNT58M9QKVavPuwL6RQe4SmgX6Leg8EZQ+ZFxNf82Vjdq2yg7pc9iJczhkN/5YsrKURlDY3ip/4k8kRuu0U9eGNqI9qiXUUv/5CznRRrRGUHTa3MrZETb/ZcYGjBweclE1SSWQOxXTFjhHzn424aiCSiy/ROotkIgSmW1J1i41Z+Jx4Myq7Q8hfvu7/7u+OEf/uF44Qtf2LyV8KIXvajZs6BNwdHRXhuKbhNeSrGcisQrCosoq77gC3Ocftno21fZYzznOc+JH/zBH2yOs8ujoEsJGXG94VDlxStQZky8JfqMxT4TvR//8R9vjNk9mag3VjTkLQQMGS1lwmrhdeEWz/Z89mOg+hW62Qe6ArjGhn9zx8gZNznA0Q9a2peMyE2Uob540tYrV9oqQ/euAhrmQNgsYhGaS/ISj2sxEX242peLJLrdXJwatT/EQw6dajeZFjR3yevIUHKOCt8Xqzr9NIiMDpq8049+hokWzlFq/pBFc3Jov+0nMbk/zJS720xpF2lRncHIG6afTZxR/yNPxsiyzzT2I6RUQiuBA5NdYFIosBBE/A1qAgr/aACHIlkVbcoLtAf2HhSmaJUiAeWlhGUMT3nKU+LCCy9sDEuyD+JpPTilEKCUQWjE2OTRZ9SUy2pe46Z8DMspKE8pvOJhnAZS8Kc97WlN2MuTF188AYMrnpVTQgld7eXJi5FZHOxtn+oBa+6LnN45cfWqEi/RpkHRK2xDX6LkDnvguDe+T3ziE82+COiToZCXcvXwGCm54YMXtVgah3pge2APWUDWZEPhqy88iRrqITXQl/K7AmgwKI8Q/uiP/qg5JfUow0HYn/zJnzRX98rVO9wxNjzlDDfKPDK4hCySG3maw6Ujg2Bkh0LA5j73X47fm+9D5l6r+TNMDKt51dhVyvKkU2Gi70MytgzeM6UOVPjZ0B317FK9l4mN/m0B5msCJRPonrBL0Rkag6tJLEU9GhBmKYGJMfHao+tadSPhJbuHaNckM07Kwxg8DBUuUszqG17RtYf49m//9sZQlFsgQB1moM1TWyHRrr6cngoZKSBa2tWYJQbHmBmderR5M6s+j4xGjU9ewh9jw7eTPQsBRaXwaAsDyZMRO2msvrRFE+3iATAyi4Cxl0yFdgyiQFunmcJ+eW0ZWR2umDuPBNAwVjg8LmWHCwdtj1bQVWasteDU4wdl1d9dAbQsKjyzrYE5YkiSbYKydnLIVQtk4zXIpkmHCGKHXRxKfFiVN/e5wWr2ZI0HkjxFy21GJ1Pej7wRU005REZGh1IMp9LQ7OGyfWNKmQ4ZGrpNv1naXBIaQ9N1Vh5hISWwtqKYlIIqo/CEXPfypQi3BxXKAbjVVp7ASmmqrq416drKU1L7JQraxm2Ennl4lIfR2JMop9SMxqLB2IRyPJrJgo8+o/QoQFhGsSk5ugAO2pL+K2zGDzwHLcIr99q0+XVFj4HgCW/FK57k1Xtc8g3f8A1Nf9pX3+gzVHRqLPrHJ4CLlpPOyrsKrywCxQdvWgcYgGdiOHgofik6XtxTfIuREK3A2HlUsi868LW9K1ALmnG6Gjuarng3buBevsak3Qi+VPeYQvPvsBJzq9JDLRpPJGWfmZqPoTLc5ioxvpExjzzWIaNinEnzkBWhlHn/pD42N/g9VN4qOQwlPFeDcvUzCtdSDkBJTUYpg0EXVLt2G7gVQimjlGjALfxa4QE8ZZSshOyeVzPRvEO7n4KiByiiI2Pt0QEmRgjp6oDCvqB4Z3x/+7d/Gz/1Uz/VPFf60R/90eb6Yz/2Y03e9Sd/8iebl6I9AqixScLrWnyKr+LF2BmRAwgP0bUrvMoD+TqgwFOVA2USusp5J7TIrMrsP+XJ0FgYmnHqh2GYR54IKONFGSx8iyBch0K1wJCNRan4UKZfIWf1Wfy35//LAe3JCS9oS/pDW7lU5dWvBIdXEahJiZG6Xwll/xwykEOKr85RfyX3aHQzjHT4McJKWTOwrMsW2Y/5yj6qnfrGEDM19LK/Q7anzzLqlE6TOoPkV1VBw3imGpRk8q3CBigxGKEK7wDXgEuRSzhFp/IUoiaF0KyWvADQhzKKatWlDCZdOQVpr3L6sQpLAM2aJPg1UcCVsVE6Bupee/3AR7dAnT6FWw4Q7LsomdCSwlrZhWFCGldKqD2e8ICmhIYyPCnXDyXWPwVVrv72QBv1Uo0DtNvIMxDhI9rutRPm4Vk7nloYKK/OAQgPRj7FA+O3v8UbHHVoCCG1sxDVAYlxkKXQ0/ygIQH1bV6/HCA30cdzn/vcw3tYyUsMDrdcKzk8sj+34OobfFE6I8MYpdsHe7JROlTAGCp9SdMvGrKkzagd0zlkPs0+L71rc2iikrH5N420kc0qQwM1qXU1oTVBlUyk99WAwVYYR2CELi/JmyTlRUPehFJadSaZwjAeBySMuqAUrwyj6tyjrUwqvnjKtgHpCw08Fh14xRsoHgBDbCuO9nCVo4tPuMqBOvjGpk4CtfBUe+X2jqBo3xUQ5jpiJzP9V+JpjccCUc8N8UCu3pRpywweGviC4x6f9fKxvaHQE//GJ2ykCwwULhx1oK5fLujX81WHQgypjKqMrZ13hWevSO+OFzjC0EoJSvEI0CpmouQJ2KRY7bza4+reaq4tgZkUYOK14c1ceRa4royUMijXjmI6NeQ9tWsrbBlR3fMuFEA/DM+1FI3gy3tRJgaNlj7RUC8pczXOMl55K7yj9mc84xnNfskJozcpnG46ifSzEG8vyDs1VCe1XzFCpxTAPb7ITT2+JOVfLtRYS17ouifn2qfZaxm/OoYhUhBqAvyRGT6Ek+XplKPjlxnky6sXDcCLooN3fcC9K+NoA73QlzGYG33iyVUfdV+8S/Cl4wWOMDSDKmUohRAqUCaDJYRazXgkv7itQwDlldTXxMm7UmgGacX0qpN67dRbmSm5EKcm0lXSFpTBWGnrlM8EScWrpA9XIZATM7T0BQcPdWJqn+fUrZ4RwfEQvfZov/zLv9zszfyC2A9cf+ZnfiZ+7dd+7fD9z//8z8cv/uIvNvdCHkoPTD7e9Ech0AalmHV/VwCvlN6eiSGhqd86OWQsNWaeyElp9a288uRhzBQc1N4ZHWEjwDevxyPWHlMC6IOaoy8X8IEmuQFzhib67atyYKylj8cLHGFoBQYmmQxXhmYFNUCrtTJ7NJ8x8HpTPUdaPQGgaJhAXtAb6AxGWeGZRK9zUXz4JVxQ7U0CxbWP8uoTb6qckigHZVQOPLxVwaNpX3wJufRlgpwC1vcy0DE2/HluxXi1M1Z5oA95huwkDh/yNfnFL0DfGNAA+le/emxfDqCFhqvFyZiq3N7RF6iEjSU3hiYqqTFpW3mJPCymxmGMtgWeN1rMagFl1O1HGtW2oJ3/cqBkjF99VH61nPRTi7PxVrvjAW7T0ICBAIOy+nsuZdWmkIRPQU2sdwT9hMJvlUywh55WRokxOpHzlr139zx01KZWIrSFpY69a3Nbk9iePHj60y+a9ZMbYSTFYISUHm088JiMBqCjvVXTym7TrUwo5FSy6l0ZDy/NKxiHcpNJFvL6Zohw/vqv/7oJf/Vdig9Hqntt3Re0818uVB9kYTwVzhWYB/0D3o7Xq1Na4NrO2xuRPX4psTHW6SP+yZ2spHa7Nqy+P1YouTB048KLBNp9SsYGT/7ukOdXCo4wtDbjpTilMH4v5KGqFbLK1DMob2IzNk/2vZ3+lre8pXmH0Nvcf/M3f9M82ZfXBpRBCePshern7m2h1rWUpsooA4+F/l/91V81fQlHvQql7KKLLmqMkMIUnybGImEMtSJSPg+9S1EZP+USdhkLWl7RYkwenNpXKjNG7zj6VYHf59VJX4G+QPUDSo7AVarxqGvn27TadW2cai+U42kYlHHq02JjUYEnQrAHq/1om37l4TjkqDIgWgDaCOvrIbU+iw9Q+EC5+9U4VV64VdduW7ypM99S3YPCdWWIlVffblP490Y4wtDajJaCAxMofdu3fVvzdgOvYKAEJBm8DbSQw5vwlN2Kb+V/+9vf3ni1UgR9aCtsc6BQxguqroTnWkkfjIFymXQeh/Lrq17PkWd0tU/TpzaUSV9CreIbL97EcLCh/yrXr3fuLBBoWiQYnj48Z/NWgtAXPwyQIWrjvnite/SqDH1QeHUP4IHiwRVOlbVTu55R1xsy7ktmrqD2VkCbgqIN4Dp9ZJx4IxdlxZOIw7ahzeNqWqvvtS9e2rC6bdEE1abKtK321Ydrjb/uwe31VVd1RaPuq/4rBV8c6Z0AXsCJnOcY9Z2JYthgayC8nJW17cEIqARi8oWiftNURns0MPmUgGJ5K8TJH8UAQlnho1VYvs2PPimhk0SvbWlTQnb1bKhOGXk8+JXq4MWhjxM4e0wGjC7gjb2raLVHC7iWkRceKLkor7r2vbEB42zjghoHqDJQ5YygDK1AHg1jqpeggTLgXvuiIYSGWzSqXpQh9JTuCNDWrvoA8lVePAH5Mui6r2stRFV2R1CLQ20tqi9wLHTuaTgmQ6PINt8+W+Dtc97NqVVtyEFNHqMg2LonCPsBb8B7054nYbjtibk9YLDaAyssGgynlAiN6g8oc8zvnUeLgrfvKaN6gi88eQZTL/YKYWs/g0YZOJBXLpSCh64XkOvtk/aEwq1FqCa/zVu7/7oqN86SV/GKlvI2feAeDu/O2Es+7XKLYZWDqpP0QWb4EyXY7ymr8cKpPV49MjkaqEe/+Jfkqz9gLEAfcKsv41MHH09VVzSPBtrBa0cxQL4SWE2rnf9KwBGfMrgjwGxbgPZB9iiO0YWHVn3epQRoMCa8XvcxafYMJlZ7qfDa4F4fvrzkq1vouWfQfrrioaY3/esNDn3jBZ6JEpYyQoZt/0HZ0Cxho1VKVYosOT0VNjoUqYMdeHD07e0OHtjhgb2dsqKFtrz+HdbYM7oHZODAhydvj1m+eAb6d7hUnhNd4xCyg7ac2uMQzgqZ3Su31yRj+18LgX7gqWvPjWTcFgX7UaE/3FJ6oad9LRnCLd5vC+DbNrRfrRMxaO/Us92Wvvjlt6inZEemthF1X3yAo/UL9C2EdwrOGWhnzp1k2y6g+X8Nx2RoJqlWaoMrQQizCE2qo3uCBjbiFNKk1SYdtHEIAr0C5e7L0Nyjiwal81sx7SkJwTK6Ov3DHzyCthIrw3dNIFqVb49BnsKjIzlwqXau6KFrPNrU5KEjKUMDfQaKXzg1RjIwfjigeKi2ZezG4l558crLqmv3WVdl+PPIoQwWrjwDL1oFxY+y4hcNY66FRXuAhjG7tmncFqDjuy1w8VN0zUF51ZIn+hZkvIHiqaIJfN0Wz7cFJQPy9mpf9SGRt/m6rfbK7mhMdycck6Fhri1EeSBfTMvXINqJUO3dCL1waqLVuxZUXRmaFV47gvNrZ2GbvlcrZAkZmMyaSKC8lNzVvbag+KsJLv5KYQsPFM/VX7sdUF59KWuPq6D6LxpwKqkrnOK/yuAXf0XbFY3i08JDTnivvl3LeNBs8ydf46xr0QPw2v3fHqCr76KzGrd4Afqtvl21ZejVpo17R1C4eLbItvkFt0dLub6/UnD7krsNIMCaKOBaA3Et5msSq7yUQMyvvfpSsMI5GmgDX7u2wqDZ7te1BE3oBe3+pOK72hRPytt1yguq7eqknSsonooWqD4K2vd4qj60UQeqzH3RadODW/jtvuQtSOi2+1FuDtBVVvU1Vlf3pah1X/se7aqP24OSr3YFlXdFt/hxX7iu6kDJ7476akPR0Iahy1c/x0LnnoZj4qQmoBKoQR0NSpDVDp22ENBQXgKrfEHlKcvqerSLLlAuVZ9AG2VtPNfiQb7q676gXVZ4oBSn7m+Lr6pv02u3cS0+23iUtnhrK3CbfpXVffVX9IofULig2lRZtQPtvLpaIKvtHUHRLN6LlquEvvoqB0WfkanXtsZwZ6Hw222Ll9uDo9XdE3BMhtYW0N0JRZe3KmGDtsDl1deqRVDwavUfw90P99R83xfhmAztnoJatYU9DIgxuSpjSOqtrkJPV+XKwFgZxnA8wL3C0ADDKg9mr8CgPPtyPO1Y3FG9o3XPsRhZhRq1ZxvDGO7NcEynjvckVCgotT1aHdszPAbG68kzsDrwaIeYYxjDvRHuFYbGoMqjtfdn8hUaujIuZRVKAvlqM4Yx3FvhXmFo5c0YE8Mpb1ZQHq3AfRknaOOOYQz3RrhLrqAUva6gjMS1Ut23jQOUgdSVkQH7r7aXKiMrenXSqF21HcMY7s1wtxhaQRlTQRlC7aHqvtoVvmvlj3ZfUPTGMIbjBY7J0Cj76rCt7l15IalOAtuG4uqQgzeqcm2k8lBjGMNXKxyTodU+CtRVmTfnvYTrXcYyuPJCjMub8PJlhGVodUQvjWEMX81wTIZmD9X2PmVkfhLi18f1N8sKh+H52b+/FunX0GVgjI5xjU8Mx3BfgWPScgbESOrQws8SfC/Er5D9INMnyhidn8sAvw9S5w8q/Nu//VtTx7C0r5CxDG8MY/hqhmM63q+wUGJkfsbir334xbVf+fpLHz7i6XMD9Xlpnwnwg094PqTj0wF+DFj02ieKYxjDVysc83O0CheFgj5B7Su+vtTrN1DCxvpalL2Yzx34da0f3/nJhU+hvfOd72y+AOyjMrwZemXAYxjDVyscod0UHjAAQPnL05RBMBjhop+9+9YGI6vfQKkXNroyxvbhCBwhJMP0AVRhZPXT3vdVWFp9V/u6alOpDerb5a7a132bTtWByhftuhas5qHwK1UbdW1cqQ5+5AuqnbLKg6JR5dUPkC+51BUULih813qDxn0l92286su9A6vKo1/47b7aoC2AU3OnjfYlB6Bevu7vy9B76Utf+uuH8oeFRsAldKEdQZk87xYyMt9orC9hqSdcuL4DYU/mozU+2iNU9G0NLwKjx+v5loW38H2k08/kfX2pFEP/6KGlrN5rpAjtfmpCgTbtSS5QhmbxXQqAjvLCKTx0CywmeC162qDjWqBN9Sm5lwoXzzy5PNrFJ9zCUVY05F3hVL76KN6U1aIGr2hUXb37qU2lGlsbF8grh4Om+uqv2hUeaPMmwQdlpEC5tgXol7y1vS/Dl4SOBFUTIBEwYREUL/Tnf/7nzbfpfWGKAEvoDj7U+8CKOt+K8E3H17/+9fGSl7yk+TgPPMrgRWEhpNDTx3YYrL5KeUw8g/bIwEQyTDzB8wk435uA6zsc6PrUHAP2UR70fWPSXhHf9RkEf2lTHz6Agzbe/YH5+t6/rx77orJ+7CtrXD5648Mxfj2gzKMKuH5R0F4k8KNPC4tfGfhgjgXGx4jw6+MxDE+9DwAZWxmH/a16+14860s7NPFjzP5Ulk/L+eBNzY164xOu+94HWj6Bp9yfn9IOvqjD90P0J9LwkVhy8MEgMrOokLPxaUcmZGrRND5zaeE0Xt800V69vbY64wbqzIM5qa+D6RPI35fhCI9mUgGB11WZiaOEPiTqjz2YOIKTTDRlJGyhJOVVrq3v2/sC1ste9rLmc2YmAag3wSaRF+TZ3FMedQzRPs+ezqe9KSHjYWgeFSin7JRPO/2beMqJhr9phlcKDc+XmYStDmv8DWR/46wMC38OaiwgvqalzuKAX0r0sz/7s83Bjr8/4OpLxR5j+DKUk9aSg7FcdNFFzaKgTv88OgUlCzTRdzD0xje+sTlIwoMybXzG3NehfJTV2I1DW0bq68++qc9o6qtWlRgnfhgn+fr0uvkhI+3tmxkGQ/MBH/36+ZGPpgr/GWgtUGj5AjMeLSjwyRxdi5rDLXThMyZ8WlTwb5tgjixAPkhb35qsdF+H2wwdKU0bfNaNorzoRS9q/nJlKZZVkDLzEFZHRoaGSWOgriaN4F/5ylc230OkvNpa3a2c8CgXJfIVJO0pkL8lDZ/X4xF9/Uo7vNjn+QsuVm+rLIOhDDyD1bk+G/fiF7+4wXUKCnzC2+GMvwLzhCc8oVFEe0qPHp75zGfGC1/4wsbz6UcZ+gyAkhmHz9Dx0nilqOUNjcGV4qHPAzJ+RnL55Zc3Rut7/uhYDHy/H23fm+QVjJsMLWI8vK9JMTofirXI8P5kyBAoMiU2B/pkSIzVQkIGjAM9NBhJ/WF5BmXBsbA88pGPbAzPgsAIGQ7ezJeoRDtyMS79WQj1hSdteFb86NM86gM/+jYehmexLLlI93U4wp8TDCUXalF4964mjhISsnuCc4VnkigHoSszqRWGuMJlNDwDBa5wyZXC+PYgJffNRPj6RFe9trXPQQ9vFIZC+2v9viMoPBJuwdWeh4XLw/3Zn/1Zg8cjKBeuMQT9M0irMXBP8SgLhaOIvJc2lIxx+Os0jAUeZS1+8KadhFflAD/CaPe8jLCqFA9dY+AdfTad9+ARLCoe/POw9dd79EnG/jabsfO42lNktACjYLw8uTFaCODwmAyHIZKvcZI5ecnjF5BVe27Q1pdF4h3veEezaOCJoWujvbEA4yYH46z5du+KlvoxrDK0UhhCLCNzpQS8BuUDykyKZBUzCcI4UDQI2tUEWgntI0xg0VRvv2BPIKSjLAzMJKmvybJiy6PlSlEYtS8V8woWAXzAg18Trlwoy6NJaFrxhTcUpkIdbfGIl0qUFq7+GCSP5EOtlNz3+vVR4wf6hStVGX4pt0WEV+JlSy6Ulbf2pWc88g7GTj48jH2crzGTLUMxtnrFjacu4wbGVQsM8Jl1Ze4ZGCO2uNSiog/4leDih1FoYwx4IWfG/tjHPrZZeISmZIEHY2BsZOWqDZ54MnUSKOMtmdyX4UuWG0IxiZQJyAuRCNXqSwmVldLYp6jzhV2rbxmJK6AY2qGLTgme8liBhWImhJdQrl/tS5EoQU2ccsrBKBl2HZaop8z2H0Iw/FAIoZ7VulZ0oS3DdnAjNLTvQVMIaZ8jRLMnVM8AeDe0GR0cCigsxCMFA8VvjZfC1hgpntALLR4CKIdD8Rkwb8lras8D+jhs/UFBsmZseHfVjrFb8Eo++meoQtk69MAbnoVxyoyfEelH+GjRID+Lp9C7Fhd1+EDTlQzVSQzP4oU3CycawniLljGRAf4Ysrb4Q6fm7r4OR+zRAMFIBOdaBkUhTLLTNBMvPFFO+azAJo5ymJCq4+mESJTU6k3wJsVEmCSbcautvYh21X/1Ddck18GEcpMvDJNMKkUxwYyPMlMooRagBIyRUTsJpZDGYxzqGI1PRrvqRxhKofXnbwPgQbm2DiEYh2QcrpQaoIk3PJAThdRO3gKiXwuGsda+lMzUAW2Nxf6X58AbY+FB4NvLWSTwoG9j1od2ZCShRQ4lP8kiiEcLGfm5JwsLUBmR/WstXPaU9qISPOX4IlP8GwcZl6zNAZ70W+Mge9eSCcDTfR2OON4nGEKpyQKVpxwUwIkZZRS6URyTDMfm27MxEyAs0saDaZMmnCnBS7wK70OJHD7UZrvqK++KfhloQd1L6BYPynk4V+UUDMirN4b2tcIeCcDXluLIF231ykHha1/3lYePdjuvnfo2/0CZVP3Ao9wUusZWODUm+XZ/6OMVbuUBfGODpxx9UPy4FqiDhw909K+98hqDevniFcCxyKqrseGtQD/F9xjuwNAIsCai6nkIm3arvw06b1XCtlLaONsXWC39kQFGV/soK6NnMwzSCaHQpm1k1Q/Qb3vCARpwSmHa7drX1aA9JVGPRk1+G1cdKDqV2gZXZW0c5eqV4beUHRT9dnvQLq980WrTbQOelVV/hVvloOi3jbfy6vQlVR/tvssgi7666kOqsja0adXYi46ygtXt7osw0uBDUMIhmBJO5SX1wkIbZGGIPY1wkWAlIaUQxn5JEgYJCU2CCbcn4+WEamhU6AWqj1Ic+LUPAuoK2opQSmaC28rSHot75aDoq6+yol3XNv3Cx0u7fPUVrJaftqv5AfJSlbtKbX6qHZAnw8JRXzSUu4LCKWMnQzzAJ5tqA0dZ4ShDt+oloG3NQfEC5IsXV/j6RMvVffWnn+rrvgxHGFpBTSRB1gRUOShjs1fwgJOxEbjjYHsvR/a8nYMOIaUJY3gOHzyj8QyLAdZkVV81gfAL3OvXtfioeuXVTpk8gFdGJ8Fr05RXX0rmvuhL9iWu2hUdIA/a/chrL18runtJKFiAfvEC2jSqTL7upQr/JPiuBVUGr9roXxmDa+O32xXgs9rgs9rps8asXeVrHoDykhl88qo6+DVWebi31f99DY769n5bQDWhEgFKNs9CRadaHloKGXkrD6/hOdlzrO14mNExPm/t17uP7QmpiVVWV5Oo39X18qDK4SgHFEdeWdEuOgxLmVT4hQfatPRFmaoNZUIbVH21K4OtMn0C+dU03cvXfUH11capeuX6buMr0wZUf/ox1spXP1UmXzwB7dBsy0AZusrb/MCRL75W54tHZUCbag/qel+FO/yZDAEDgiI8qx6BKjcpjs8ZkeNxey7ejMdT53TqTW96U3O66EDEa0xoSOjVpJhY+O0Jr4mpyQR1hVs0tGkrAag+4FX5anz3t9VOXjnlrH6qHsCva5tW9UG5yrDbtID7audaPLQT3GrXxikeqqzu23l4oMrggqJV13ZZ0S9ZFV57kQFtenVtQ9GT0AJoKB9DyuyODK0NhFgCL2ETKs/mRJKnEhJWHWCIHgw7DndcfTSoybq74Z6ie1uwuq+vZN/3JHy1jOP/Co7J0ACBS1Y6gpevFaxd5lora3nBMYzhvgkR/x/jRkMeqweXygAAAABJRU5ErkJggg==;" vertex="1" parent="PDopcycZYU54J8PSpkbe-50">
          <mxGeometry x="27.5" y="95.90000000000009" width="72.08" height="29.1" as="geometry" />
        </mxCell>
        <mxCell id="PDopcycZYU54J8PSpkbe-54" value="" style="endArrow=classic;html=1;rounded=0;" edge="1" parent="1" source="PDopcycZYU54J8PSpkbe-40" target="PDopcycZYU54J8PSpkbe-47">
          <mxGeometry width="50" height="50" relative="1" as="geometry">
            <mxPoint x="820" y="970" as="sourcePoint" />
            <mxPoint x="870" y="920" as="targetPoint" />
            <Array as="points">
              <mxPoint x="880" y="922" />
              <mxPoint x="880" y="875" />
            </Array>
          </mxGeometry>
        </mxCell>
        <mxCell id="PDopcycZYU54J8PSpkbe-55" value="" style="rounded=0;whiteSpace=wrap;html=1;container=0;" vertex="1" parent="1">
          <mxGeometry x="530" y="875" width="80" height="115" as="geometry" />
        </mxCell>
        <mxCell id="PDopcycZYU54J8PSpkbe-56" value="InfluxDB&lt;br&gt;v. 2.3.0" style="fontColor=#0066CC;verticalAlign=top;verticalLabelPosition=bottom;labelPosition=center;align=center;html=1;outlineConnect=0;fillColor=#CCCCCC;strokeColor=#6881B3;gradientColor=none;gradientDirection=north;strokeWidth=2;shape=mxgraph.networks.storage;container=0;" vertex="1" parent="1">
          <mxGeometry x="540" y="892.75" width="60" height="60" as="geometry" />
        </mxCell>
        <mxCell id="PDopcycZYU54J8PSpkbe-57" value="DB Container" style="text;html=1;strokeColor=none;fillColor=none;align=center;verticalAlign=middle;whiteSpace=wrap;rounded=0;container=0;" vertex="1" parent="1">
          <mxGeometry x="530" y="845" width="80" height="30" as="geometry" />
        </mxCell>
        <mxCell id="PDopcycZYU54J8PSpkbe-58" value="" style="rounded=0;whiteSpace=wrap;html=1;container=0;" vertex="1" parent="1">
          <mxGeometry x="659.51" y="875" width="100.49" height="110" as="geometry" />
        </mxCell>
        <mxCell id="PDopcycZYU54J8PSpkbe-59" value="ML Microservice" style="fontColor=#0066CC;verticalAlign=top;verticalLabelPosition=bottom;labelPosition=center;align=center;html=1;outlineConnect=0;fillColor=#CCCCCC;strokeColor=#6881B3;gradientColor=none;gradientDirection=north;strokeWidth=2;shape=mxgraph.networks.desktop_pc;container=0;" vertex="1" parent="1">
          <mxGeometry x="679.51" y="889.75" width="57.5" height="65" as="geometry" />
        </mxCell>
        <mxCell id="PDopcycZYU54J8PSpkbe-60" value="ML Container" style="text;html=1;strokeColor=none;fillColor=none;align=center;verticalAlign=middle;whiteSpace=wrap;rounded=0;container=0;" vertex="1" parent="1">
          <mxGeometry x="665" y="845" width="90" height="30" as="geometry" />
        </mxCell>
        <mxCell id="PDopcycZYU54J8PSpkbe-61" value="" style="edgeStyle=orthogonalEdgeStyle;rounded=0;orthogonalLoop=1;jettySize=auto;html=1;entryX=0;entryY=0.5;entryDx=0;entryDy=0;entryPerimeter=0;" edge="1" parent="1" source="PDopcycZYU54J8PSpkbe-56" target="PDopcycZYU54J8PSpkbe-59">
          <mxGeometry relative="1" as="geometry">
            <mxPoint x="660" y="922" as="targetPoint" />
          </mxGeometry>
        </mxCell>
        <mxCell id="PDopcycZYU54J8PSpkbe-62" style="edgeStyle=orthogonalEdgeStyle;rounded=0;orthogonalLoop=1;jettySize=auto;html=1;exitX=1;exitY=0.5;exitDx=0;exitDy=0;exitPerimeter=0;" edge="1" parent="1" source="PDopcycZYU54J8PSpkbe-38" target="PDopcycZYU54J8PSpkbe-56">
          <mxGeometry relative="1" as="geometry" />
        </mxCell>
        <mxCell id="PDopcycZYU54J8PSpkbe-63" value="" style="edgeStyle=orthogonalEdgeStyle;rounded=0;orthogonalLoop=1;jettySize=auto;html=1;exitX=1;exitY=0.5;exitDx=0;exitDy=0;exitPerimeter=0;" edge="1" parent="1" source="PDopcycZYU54J8PSpkbe-37" target="PDopcycZYU54J8PSpkbe-64">
          <mxGeometry relative="1" as="geometry">
            <mxPoint x="260" y="922" as="sourcePoint" />
            <mxPoint x="410" y="922" as="targetPoint" />
          </mxGeometry>
        </mxCell>
        <mxCell id="PDopcycZYU54J8PSpkbe-64" value="Aruba &lt;br&gt;Controller" style="shape=mxgraph.cisco.switches.layer_2_remote_switch;sketch=0;html=1;pointerEvents=1;dashed=0;fillColor=#036897;strokeColor=#ffffff;strokeWidth=2;verticalLabelPosition=bottom;verticalAlign=top;align=center;outlineConnect=0;" vertex="1" parent="1">
          <mxGeometry x="300" y="910.25" width="70" height="25" as="geometry" />
        </mxCell>
        <mxCell id="PDopcycZYU54J8PSpkbe-65" value="" style="shape=link;html=1;rounded=0;" edge="1" parent="1" source="PDopcycZYU54J8PSpkbe-34" target="PDopcycZYU54J8PSpkbe-37">
          <mxGeometry width="100" relative="1" as="geometry">
            <mxPoint x="150" y="950" as="sourcePoint" />
            <mxPoint x="250" y="950" as="targetPoint" />
          </mxGeometry>
        </mxCell>
        <mxCell id="PDopcycZYU54J8PSpkbe-66" value="" style="shape=link;html=1;rounded=0;entryX=0;entryY=1;entryDx=0;entryDy=0;entryPerimeter=0;" edge="1" parent="1" source="PDopcycZYU54J8PSpkbe-35" target="PDopcycZYU54J8PSpkbe-37">
          <mxGeometry width="100" relative="1" as="geometry">
            <mxPoint x="150" y="950" as="sourcePoint" />
            <mxPoint x="250" y="950" as="targetPoint" />
          </mxGeometry>
        </mxCell>
        <mxCell id="PDopcycZYU54J8PSpkbe-67" value="" style="shape=link;html=1;rounded=0;entryX=0;entryY=0;entryDx=0;entryDy=0;entryPerimeter=0;" edge="1" parent="1" source="PDopcycZYU54J8PSpkbe-33" target="PDopcycZYU54J8PSpkbe-37">
          <mxGeometry width="100" relative="1" as="geometry">
            <mxPoint x="150" y="950" as="sourcePoint" />
            <mxPoint x="250" y="950" as="targetPoint" />
          </mxGeometry>
        </mxCell>
        <mxCell id="PDopcycZYU54J8PSpkbe-68" value="" style="rounded=0;whiteSpace=wrap;html=1;" vertex="1" parent="1">
          <mxGeometry x="10" y="410" width="380" height="250" as="geometry" />
        </mxCell>
        <mxCell id="PDopcycZYU54J8PSpkbe-69" value="Test Environment" style="text;html=1;strokeColor=none;fillColor=none;align=center;verticalAlign=middle;whiteSpace=wrap;rounded=0;" vertex="1" parent="1">
          <mxGeometry x="132.5" y="380" width="135" height="30" as="geometry" />
        </mxCell>
        <mxCell id="PDopcycZYU54J8PSpkbe-70" value="" style="fontColor=#0066CC;verticalAlign=top;verticalLabelPosition=bottom;labelPosition=center;align=center;html=1;outlineConnect=0;fillColor=#CCCCCC;strokeColor=#6881B3;gradientColor=none;gradientDirection=north;strokeWidth=2;shape=mxgraph.networks.wireless_modem;" vertex="1" parent="1">
          <mxGeometry x="70" y="420" width="60" height="50" as="geometry" />
        </mxCell>
        <mxCell id="PDopcycZYU54J8PSpkbe-71" value="" style="fontColor=#0066CC;verticalAlign=top;verticalLabelPosition=bottom;labelPosition=center;align=center;html=1;outlineConnect=0;fillColor=#CCCCCC;strokeColor=#6881B3;gradientColor=none;gradientDirection=north;strokeWidth=2;shape=mxgraph.networks.wireless_modem;" vertex="1" parent="1">
          <mxGeometry x="70" y="500" width="60" height="50" as="geometry" />
        </mxCell>
        <mxCell id="PDopcycZYU54J8PSpkbe-72" value="" style="fontColor=#0066CC;verticalAlign=top;verticalLabelPosition=bottom;labelPosition=center;align=center;html=1;outlineConnect=0;fillColor=#CCCCCC;strokeColor=#6881B3;gradientColor=none;gradientDirection=north;strokeWidth=2;shape=mxgraph.networks.wireless_modem;" vertex="1" parent="1">
          <mxGeometry x="70" y="590" width="60" height="50" as="geometry" />
        </mxCell>
        <mxCell id="PDopcycZYU54J8PSpkbe-73" value="PoE&lt;br&gt;Switch" style="shape=mxgraph.cisco.switches.layer_2_remote_switch;sketch=0;html=1;pointerEvents=1;dashed=0;fillColor=#036897;strokeColor=#ffffff;strokeWidth=2;verticalLabelPosition=bottom;verticalAlign=top;align=center;outlineConnect=0;" vertex="1" parent="1">
          <mxGeometry x="190" y="509.75" width="70" height="25" as="geometry" />
        </mxCell>
        <mxCell id="PDopcycZYU54J8PSpkbe-74" value="Aruba AP" style="text;html=1;strokeColor=none;fillColor=none;align=center;verticalAlign=middle;whiteSpace=wrap;rounded=0;" vertex="1" parent="1">
          <mxGeometry x="20" y="530" width="42.5" height="30" as="geometry" />
        </mxCell>
        <mxCell id="PDopcycZYU54J8PSpkbe-75" value="" style="edgeStyle=orthogonalEdgeStyle;rounded=0;orthogonalLoop=1;jettySize=auto;html=1;exitX=1;exitY=0.5;exitDx=0;exitDy=0;exitPerimeter=0;" edge="1" parent="1" source="PDopcycZYU54J8PSpkbe-73" target="PDopcycZYU54J8PSpkbe-76">
          <mxGeometry relative="1" as="geometry">
            <mxPoint x="260" y="522" as="sourcePoint" />
            <mxPoint x="410" y="522" as="targetPoint" />
          </mxGeometry>
        </mxCell>
        <mxCell id="PDopcycZYU54J8PSpkbe-76" value="Aruba &lt;br&gt;Controller" style="shape=mxgraph.cisco.switches.layer_2_remote_switch;sketch=0;html=1;pointerEvents=1;dashed=0;fillColor=#036897;strokeColor=#ffffff;strokeWidth=2;verticalLabelPosition=bottom;verticalAlign=top;align=center;outlineConnect=0;" vertex="1" parent="1">
          <mxGeometry x="300" y="510.25" width="70" height="25" as="geometry" />
        </mxCell>
        <mxCell id="PDopcycZYU54J8PSpkbe-77" value="" style="shape=link;html=1;rounded=0;" edge="1" parent="1" source="PDopcycZYU54J8PSpkbe-71" target="PDopcycZYU54J8PSpkbe-73">
          <mxGeometry width="100" relative="1" as="geometry">
            <mxPoint x="150" y="550" as="sourcePoint" />
            <mxPoint x="250" y="550" as="targetPoint" />
          </mxGeometry>
        </mxCell>
        <mxCell id="PDopcycZYU54J8PSpkbe-78" value="" style="shape=link;html=1;rounded=0;entryX=0;entryY=1;entryDx=0;entryDy=0;entryPerimeter=0;" edge="1" parent="1" source="PDopcycZYU54J8PSpkbe-72" target="PDopcycZYU54J8PSpkbe-73">
          <mxGeometry width="100" relative="1" as="geometry">
            <mxPoint x="150" y="550" as="sourcePoint" />
            <mxPoint x="250" y="550" as="targetPoint" />
          </mxGeometry>
        </mxCell>
        <mxCell id="PDopcycZYU54J8PSpkbe-79" value="" style="shape=link;html=1;rounded=0;entryX=0;entryY=0;entryDx=0;entryDy=0;entryPerimeter=0;" edge="1" parent="1" source="PDopcycZYU54J8PSpkbe-70" target="PDopcycZYU54J8PSpkbe-73">
          <mxGeometry width="100" relative="1" as="geometry">
            <mxPoint x="150" y="550" as="sourcePoint" />
            <mxPoint x="250" y="550" as="targetPoint" />
          </mxGeometry>
        </mxCell>
        <mxCell id="PDopcycZYU54J8PSpkbe-80" style="edgeStyle=orthogonalEdgeStyle;rounded=0;orthogonalLoop=1;jettySize=auto;html=1;" edge="1" parent="1" source="PDopcycZYU54J8PSpkbe-76" target="PDopcycZYU54J8PSpkbe-83">
          <mxGeometry relative="1" as="geometry">
            <mxPoint x="260" y="542.25" as="sourcePoint" />
            <mxPoint x="410" y="522.304347826087" as="targetPoint" />
          </mxGeometry>
        </mxCell>
        <mxCell id="PDopcycZYU54J8PSpkbe-81" value="" style="edgeStyle=orthogonalEdgeStyle;rounded=0;orthogonalLoop=1;jettySize=auto;html=1;" edge="1" parent="1" source="PDopcycZYU54J8PSpkbe-59" target="PDopcycZYU54J8PSpkbe-40">
          <mxGeometry relative="1" as="geometry">
            <mxPoint x="800" y="890" as="sourcePoint" />
            <mxPoint x="800" y="955" as="targetPoint" />
          </mxGeometry>
        </mxCell>
        <mxCell id="PDopcycZYU54J8PSpkbe-82" style="edgeStyle=orthogonalEdgeStyle;rounded=0;orthogonalLoop=1;jettySize=auto;html=1;exitX=1;exitY=0.5;exitDx=0;exitDy=0;exitPerimeter=0;" edge="1" parent="1" source="PDopcycZYU54J8PSpkbe-83" target="PDopcycZYU54J8PSpkbe-25">
          <mxGeometry relative="1" as="geometry" />
        </mxCell>
        <mxCell id="PDopcycZYU54J8PSpkbe-83" value="Aruba-to-OpenWiFi" style="fontColor=#0066CC;verticalAlign=top;verticalLabelPosition=bottom;labelPosition=center;align=center;html=1;outlineConnect=0;fillColor=#CCCCCC;strokeColor=#6881B3;gradientColor=none;gradientDirection=north;strokeWidth=2;shape=mxgraph.networks.desktop_pc;" vertex="1" parent="1">
          <mxGeometry x="431.25" y="489.75" width="57.5" height="65" as="geometry" />
        </mxCell>
        <mxCell id="PDopcycZYU54J8PSpkbe-84" value="" style="rounded=0;whiteSpace=wrap;html=1;dashed=1;dashPattern=12 12;fillColor=none;" vertex="1" parent="1">
          <mxGeometry y="10" width="1070" height="320" as="geometry" />
        </mxCell>
        <mxCell id="PDopcycZYU54J8PSpkbe-85" value="" style="rounded=0;whiteSpace=wrap;html=1;" vertex="1" parent="1">
          <mxGeometry x="400" y="90" width="120" height="150" as="geometry" />
        </mxCell>
        <mxCell id="PDopcycZYU54J8PSpkbe-86" value="" style="rounded=0;whiteSpace=wrap;html=1;" vertex="1" parent="1">
          <mxGeometry x="530" y="90" width="360" height="150" as="geometry" />
        </mxCell>
        <mxCell id="PDopcycZYU54J8PSpkbe-87" value="" style="rounded=0;whiteSpace=wrap;html=1;" vertex="1" parent="1">
          <mxGeometry x="898" y="90" width="160" height="140" as="geometry" />
        </mxCell>
        <mxCell id="PDopcycZYU54J8PSpkbe-88" value="" style="rounded=0;whiteSpace=wrap;html=1;" vertex="1" parent="1">
          <mxGeometry x="693.75" y="116.88" width="100" height="103.12" as="geometry" />
        </mxCell>
        <mxCell id="PDopcycZYU54J8PSpkbe-89" value="" style="rounded=0;whiteSpace=wrap;html=1;" vertex="1" parent="1">
          <mxGeometry x="540" y="116.88" width="140" height="90" as="geometry" />
        </mxCell>
        <mxCell id="PDopcycZYU54J8PSpkbe-90" value="" style="edgeStyle=orthogonalEdgeStyle;rounded=0;orthogonalLoop=1;jettySize=auto;html=1;" edge="1" parent="1" source="PDopcycZYU54J8PSpkbe-91" target="PDopcycZYU54J8PSpkbe-92">
          <mxGeometry relative="1" as="geometry" />
        </mxCell>
        <mxCell id="PDopcycZYU54J8PSpkbe-91" value="InfluxDB&lt;br&gt;v. 2.3.0" style="fontColor=#0066CC;verticalAlign=middle;verticalLabelPosition=middle;labelPosition=right;align=left;html=1;outlineConnect=0;fillColor=#CCCCCC;strokeColor=#6881B3;gradientColor=none;gradientDirection=north;strokeWidth=2;shape=mxgraph.networks.storage;" vertex="1" parent="1">
          <mxGeometry x="560" y="131.88" width="60" height="60" as="geometry" />
        </mxCell>
        <mxCell id="PDopcycZYU54J8PSpkbe-92" value="ML Microservice" style="fontColor=#0066CC;verticalAlign=top;verticalLabelPosition=bottom;labelPosition=center;align=center;html=1;outlineConnect=0;fillColor=#CCCCCC;strokeColor=#6881B3;gradientColor=none;gradientDirection=north;strokeWidth=2;shape=mxgraph.networks.desktop_pc;" vertex="1" parent="1">
          <mxGeometry x="715" y="129.37999999999997" width="57.5" height="65" as="geometry" />
        </mxCell>
        <mxCell id="PDopcycZYU54J8PSpkbe-93" style="edgeStyle=orthogonalEdgeStyle;rounded=0;orthogonalLoop=1;jettySize=auto;html=1;entryX=0;entryY=0.5;entryDx=0;entryDy=0;entryPerimeter=0;" edge="1" parent="1" source="PDopcycZYU54J8PSpkbe-94" target="PDopcycZYU54J8PSpkbe-123">
          <mxGeometry relative="1" as="geometry">
            <Array as="points">
              <mxPoint x="910" y="165" />
              <mxPoint x="910" y="190" />
              <mxPoint x="940" y="190" />
            </Array>
            <mxPoint x="960" y="154.93750000000023" as="targetPoint" />
          </mxGeometry>
        </mxCell>
        <mxCell id="PDopcycZYU54J8PSpkbe-94" value="" style="sketch=0;outlineConnect=0;fontColor=#232F3E;gradientColor=none;fillColor=#7AA116;strokeColor=none;dashed=0;verticalLabelPosition=bottom;verticalAlign=top;align=center;html=1;fontSize=12;fontStyle=0;aspect=fixed;pointerEvents=1;shape=mxgraph.aws4.action;" vertex="1" parent="1">
          <mxGeometry x="820" y="137.75" width="48" height="48" as="geometry" />
        </mxCell>
        <mxCell id="PDopcycZYU54J8PSpkbe-95" value="" style="edgeStyle=orthogonalEdgeStyle;rounded=0;orthogonalLoop=1;jettySize=auto;html=1;" edge="1" parent="1" source="PDopcycZYU54J8PSpkbe-92" target="PDopcycZYU54J8PSpkbe-94">
          <mxGeometry relative="1" as="geometry">
            <mxPoint x="740" y="203.38" as="sourcePoint" />
            <mxPoint x="740" y="268.38" as="targetPoint" />
          </mxGeometry>
        </mxCell>
        <mxCell id="PDopcycZYU54J8PSpkbe-96" value="Crawler VM&lt;br&gt;Ubuntu 22.x.x" style="text;html=1;strokeColor=none;fillColor=none;align=center;verticalAlign=middle;whiteSpace=wrap;rounded=0;" vertex="1" parent="1">
          <mxGeometry x="415" y="60" width="90" height="30" as="geometry" />
        </mxCell>
        <mxCell id="PDopcycZYU54J8PSpkbe-97" value="Main Server&lt;br&gt;Ubuntu 22.x.x" style="text;html=1;strokeColor=none;fillColor=none;align=center;verticalAlign=middle;whiteSpace=wrap;rounded=0;" vertex="1" parent="1">
          <mxGeometry x="669.51" y="60" width="90" height="30" as="geometry" />
        </mxCell>
        <mxCell id="PDopcycZYU54J8PSpkbe-98" value="User&lt;br&gt;Ubuntu 22.x.x" style="text;html=1;strokeColor=none;fillColor=none;align=center;verticalAlign=middle;whiteSpace=wrap;rounded=0;" vertex="1" parent="1">
          <mxGeometry x="920.5" y="60" width="115" height="30" as="geometry" />
        </mxCell>
        <mxCell id="PDopcycZYU54J8PSpkbe-99" value="DB Container" style="text;html=1;strokeColor=none;fillColor=none;align=center;verticalAlign=middle;whiteSpace=wrap;rounded=0;" vertex="1" parent="1">
          <mxGeometry x="570" y="93.88" width="80" height="30" as="geometry" />
        </mxCell>
        <mxCell id="PDopcycZYU54J8PSpkbe-100" value="ML Container" style="text;html=1;strokeColor=none;fillColor=none;align=center;verticalAlign=middle;whiteSpace=wrap;rounded=0;" vertex="1" parent="1">
          <mxGeometry x="700" y="93.37999999999994" width="90" height="30" as="geometry" />
        </mxCell>
        <mxCell id="PDopcycZYU54J8PSpkbe-101" value="API" style="text;html=1;strokeColor=none;fillColor=none;align=center;verticalAlign=middle;whiteSpace=wrap;rounded=0;" vertex="1" parent="1">
          <mxGeometry x="799" y="188.13" width="90" height="30" as="geometry" />
        </mxCell>
        <mxCell id="PDopcycZYU54J8PSpkbe-102" value="OpenWiFi as UI Version" style="text;html=1;strokeColor=none;fillColor=none;align=center;verticalAlign=middle;whiteSpace=wrap;rounded=0;fontSize=15;fontStyle=1" vertex="1" parent="1">
          <mxGeometry x="450" y="-30" width="190" height="30" as="geometry" />
        </mxCell>
        <mxCell id="PDopcycZYU54J8PSpkbe-103" value="" style="rounded=0;whiteSpace=wrap;html=1;" vertex="1" parent="1">
          <mxGeometry x="10" y="50" width="380" height="250" as="geometry" />
        </mxCell>
        <mxCell id="PDopcycZYU54J8PSpkbe-104" value="Test Environment" style="text;html=1;strokeColor=none;fillColor=none;align=center;verticalAlign=middle;whiteSpace=wrap;rounded=0;" vertex="1" parent="1">
          <mxGeometry x="132.5" y="20" width="135" height="30" as="geometry" />
        </mxCell>
        <mxCell id="PDopcycZYU54J8PSpkbe-105" value="" style="fontColor=#0066CC;verticalAlign=top;verticalLabelPosition=bottom;labelPosition=center;align=center;html=1;outlineConnect=0;fillColor=#CCCCCC;strokeColor=#6881B3;gradientColor=none;gradientDirection=north;strokeWidth=2;shape=mxgraph.networks.wireless_modem;" vertex="1" parent="1">
          <mxGeometry x="70" y="60" width="60" height="50" as="geometry" />
        </mxCell>
        <mxCell id="PDopcycZYU54J8PSpkbe-106" value="" style="fontColor=#0066CC;verticalAlign=top;verticalLabelPosition=bottom;labelPosition=center;align=center;html=1;outlineConnect=0;fillColor=#CCCCCC;strokeColor=#6881B3;gradientColor=none;gradientDirection=north;strokeWidth=2;shape=mxgraph.networks.wireless_modem;" vertex="1" parent="1">
          <mxGeometry x="70" y="140" width="60" height="50" as="geometry" />
        </mxCell>
        <mxCell id="PDopcycZYU54J8PSpkbe-107" value="" style="fontColor=#0066CC;verticalAlign=top;verticalLabelPosition=bottom;labelPosition=center;align=center;html=1;outlineConnect=0;fillColor=#CCCCCC;strokeColor=#6881B3;gradientColor=none;gradientDirection=north;strokeWidth=2;shape=mxgraph.networks.wireless_modem;" vertex="1" parent="1">
          <mxGeometry x="70" y="230" width="60" height="50" as="geometry" />
        </mxCell>
        <mxCell id="PDopcycZYU54J8PSpkbe-108" value="PoE&lt;br&gt;Switch" style="shape=mxgraph.cisco.switches.layer_2_remote_switch;sketch=0;html=1;pointerEvents=1;dashed=0;fillColor=#036897;strokeColor=#ffffff;strokeWidth=2;verticalLabelPosition=bottom;verticalAlign=top;align=center;outlineConnect=0;" vertex="1" parent="1">
          <mxGeometry x="190" y="149.75" width="70" height="25" as="geometry" />
        </mxCell>
        <mxCell id="PDopcycZYU54J8PSpkbe-109" value="Aruba AP" style="text;html=1;strokeColor=none;fillColor=none;align=center;verticalAlign=middle;whiteSpace=wrap;rounded=0;" vertex="1" parent="1">
          <mxGeometry x="20" y="170" width="42.5" height="30" as="geometry" />
        </mxCell>
        <mxCell id="PDopcycZYU54J8PSpkbe-110" value="" style="edgeStyle=orthogonalEdgeStyle;rounded=0;orthogonalLoop=1;jettySize=auto;html=1;exitX=1;exitY=0.5;exitDx=0;exitDy=0;exitPerimeter=0;" edge="1" parent="1" source="PDopcycZYU54J8PSpkbe-108" target="PDopcycZYU54J8PSpkbe-111">
          <mxGeometry relative="1" as="geometry">
            <mxPoint x="260" y="162" as="sourcePoint" />
            <mxPoint x="410" y="162" as="targetPoint" />
          </mxGeometry>
        </mxCell>
        <mxCell id="PDopcycZYU54J8PSpkbe-111" value="WiFi&lt;br&gt;Controller" style="shape=mxgraph.cisco.switches.layer_2_remote_switch;sketch=0;html=1;pointerEvents=1;dashed=0;fillColor=#036897;strokeColor=#ffffff;strokeWidth=2;verticalLabelPosition=bottom;verticalAlign=top;align=center;outlineConnect=0;" vertex="1" parent="1">
          <mxGeometry x="300" y="150.25" width="70" height="25" as="geometry" />
        </mxCell>
        <mxCell id="PDopcycZYU54J8PSpkbe-112" value="" style="shape=link;html=1;rounded=0;" edge="1" parent="1" source="PDopcycZYU54J8PSpkbe-106" target="PDopcycZYU54J8PSpkbe-108">
          <mxGeometry width="100" relative="1" as="geometry">
            <mxPoint x="150" y="190" as="sourcePoint" />
            <mxPoint x="250" y="190" as="targetPoint" />
          </mxGeometry>
        </mxCell>
        <mxCell id="PDopcycZYU54J8PSpkbe-113" value="" style="shape=link;html=1;rounded=0;entryX=0;entryY=1;entryDx=0;entryDy=0;entryPerimeter=0;" edge="1" parent="1" source="PDopcycZYU54J8PSpkbe-107" target="PDopcycZYU54J8PSpkbe-108">
          <mxGeometry width="100" relative="1" as="geometry">
            <mxPoint x="150" y="190" as="sourcePoint" />
            <mxPoint x="250" y="190" as="targetPoint" />
          </mxGeometry>
        </mxCell>
        <mxCell id="PDopcycZYU54J8PSpkbe-114" value="" style="shape=link;html=1;rounded=0;entryX=0;entryY=0;entryDx=0;entryDy=0;entryPerimeter=0;" edge="1" parent="1" source="PDopcycZYU54J8PSpkbe-105" target="PDopcycZYU54J8PSpkbe-108">
          <mxGeometry width="100" relative="1" as="geometry">
            <mxPoint x="150" y="190" as="sourcePoint" />
            <mxPoint x="250" y="190" as="targetPoint" />
          </mxGeometry>
        </mxCell>
        <mxCell id="PDopcycZYU54J8PSpkbe-115" style="edgeStyle=orthogonalEdgeStyle;rounded=0;orthogonalLoop=1;jettySize=auto;html=1;" edge="1" parent="1" source="PDopcycZYU54J8PSpkbe-111" target="PDopcycZYU54J8PSpkbe-117">
          <mxGeometry relative="1" as="geometry">
            <mxPoint x="260" y="182.25" as="sourcePoint" />
            <mxPoint x="431.25" y="162.29999999999995" as="targetPoint" />
          </mxGeometry>
        </mxCell>
        <mxCell id="PDopcycZYU54J8PSpkbe-116" style="edgeStyle=orthogonalEdgeStyle;rounded=0;orthogonalLoop=1;jettySize=auto;html=1;" edge="1" parent="1" source="PDopcycZYU54J8PSpkbe-117" target="PDopcycZYU54J8PSpkbe-91">
          <mxGeometry relative="1" as="geometry">
            <mxPoint x="488.75" y="162.25" as="sourcePoint" />
            <mxPoint x="564.51" y="161.79999999999995" as="targetPoint" />
          </mxGeometry>
        </mxCell>
        <mxCell id="PDopcycZYU54J8PSpkbe-117" value="AP Data&lt;br&gt;Crawler" style="fontColor=#0066CC;verticalAlign=top;verticalLabelPosition=bottom;labelPosition=center;align=center;html=1;outlineConnect=0;fillColor=#CCCCCC;strokeColor=#6881B3;gradientColor=none;gradientDirection=north;strokeWidth=2;shape=mxgraph.networks.virtual_server;" vertex="1" parent="1">
          <mxGeometry x="425" y="123.25" width="70" height="79" as="geometry" />
        </mxCell>
        <mxCell id="PDopcycZYU54J8PSpkbe-118" style="edgeStyle=orthogonalEdgeStyle;rounded=0;orthogonalLoop=1;jettySize=auto;html=1;entryX=0;entryY=0.5;entryDx=0;entryDy=0;entryPerimeter=0;" edge="1" parent="1" source="PDopcycZYU54J8PSpkbe-94" target="PDopcycZYU54J8PSpkbe-120">
          <mxGeometry relative="1" as="geometry">
            <Array as="points">
              <mxPoint x="910" y="160" />
              <mxPoint x="910" y="128" />
            </Array>
            <mxPoint x="878" y="175" as="sourcePoint" />
            <mxPoint x="970" y="164.93750000000023" as="targetPoint" />
          </mxGeometry>
        </mxCell>
        <mxCell id="PDopcycZYU54J8PSpkbe-119" value="" style="group" connectable="0" vertex="1" parent="1">
          <mxGeometry x="940" y="99.99999999999999" width="93" height="54.937500000000014" as="geometry" />
        </mxCell>
        <mxCell id="PDopcycZYU54J8PSpkbe-120" value="" style="fontColor=#0066CC;verticalAlign=top;verticalLabelPosition=bottom;labelPosition=center;align=center;html=1;outlineConnect=0;fillColor=#CCCCCC;strokeColor=#6881B3;gradientColor=none;gradientDirection=north;strokeWidth=2;shape=mxgraph.networks.tablet;" vertex="1" parent="PDopcycZYU54J8PSpkbe-119">
          <mxGeometry width="93" height="54.9375" as="geometry" />
        </mxCell>
        <mxCell id="PDopcycZYU54J8PSpkbe-121" value="" style="shape=image;verticalLabelPosition=bottom;labelBackgroundColor=default;verticalAlign=top;aspect=fixed;imageAspect=0;image=https://www.vectorlogo.zone/logos/grafana/grafana-ar21.png;" vertex="1" parent="PDopcycZYU54J8PSpkbe-119">
          <mxGeometry x="9.299999999999955" y="9.16000000000001" width="73.24" height="36.62" as="geometry" />
        </mxCell>
        <mxCell id="PDopcycZYU54J8PSpkbe-122" value="" style="group" connectable="0" vertex="1" parent="1">
          <mxGeometry x="940" y="163.18999999999997" width="93" height="54.9375" as="geometry" />
        </mxCell>
        <mxCell id="PDopcycZYU54J8PSpkbe-123" value="" style="fontColor=#0066CC;verticalAlign=top;verticalLabelPosition=bottom;labelPosition=center;align=center;html=1;outlineConnect=0;fillColor=#CCCCCC;strokeColor=#6881B3;gradientColor=none;gradientDirection=north;strokeWidth=2;shape=mxgraph.networks.tablet;" vertex="1" parent="PDopcycZYU54J8PSpkbe-122">
          <mxGeometry width="93" height="54.9375" as="geometry" />
        </mxCell>
        <mxCell id="PDopcycZYU54J8PSpkbe-124" value="" style="shape=image;verticalLabelPosition=bottom;labelBackgroundColor=default;verticalAlign=top;aspect=fixed;imageAspect=0;image=data:image/png,iVBORw0KGgoAAAANSUhEUgAAANoAAABYCAYAAACTZekIAAAAAXNSR0IArs4c6QAAAARnQU1BAACxjwv8YQUAAAAJcEhZcwAADsMAAA7DAcdvqGQAADwISURBVHhe7d0JtKVHUTjwuve+/c2ezJJ9kpAFAmETAQGVXUBcQAVRVBSPHPcdceHoOXo8Hj3KUf+4IhoEREVQBBSDrMoqECRAIIGQfZvMPvPeu+/d+6/fd6eGbx7JJEMSzJBbSc/XX3d1dXV1VVd1f9/9Xqff7w9jDGM4TmGY2tuNG2Lvrg/FcPHK6C7sjO7KwZjoZnlvMroT89Gd2hwxsyVielMMJjfGSm9DDGJN9FZmsm0vhh2UujGUz5puZ7m5i0ESGU5kymtnZCbDToMcncRLhCZ/Z2BsaGM4jiFNoztMA7sibrn6TTHRvyJmhruiO1xiEWk7k6nhM7GcBrXcmYvh1JqI+ROiu/akmJjcHPNTW5NGlnXWxErMxmA4E4POIDqHDK0zSBrDpMHQuitZx7Qyn2bWHSYeY7yTMDa0MRy30Inl6A2WYrB4Wez4/OtjeuXKmOsezIph1kzHSnqkNImYSAPpZdkwjWWx040D3alYSuM6cd050Zs6NXozZ0Vn6qSs3xArnfRgaXaMopvG2kkvx9CG2X5wKKUJRk/dyBXeKRgb2hiOWxC+daIfneWrY+81b4s4eHlMDHapSA821RhLJ73bVByMqWEa4GCxMZSVyV70ebrl2ZiYPjkmZs6MiTXbY2L+jIiJrenZ1ibl9GTap3HynANhZDcNt7ucBszjTSXtNMI7CWNDG8NxDSv533R3byzvvyyW9l6eFrYjjSFtaln06J+90V3akWlnGiEDGeR/S9kq8xO9WFrupfGtj+70lpicS4Nb++DMn3/IuyV2N8PQbrZZnsi9Wye9YxrrMOmmoTb7tzsJY0Mbw3EMqbrNOcVCBnj70sh25s0CC0sLVJEh4HBfrPRvjeWDO2Ji6UAMFnZGf+G63IftyrQ/cZfTAU4lrek0uHVpP2fH5MaHpIc7PwYT29IkJ9Ik09F1erlNW46J5aXoTk2msfGn9mt3DsaGNobjGA6d/KWnmugyrjQy90K6QXqbnj1UP60kw79heqKDe2MlPd6w/4VY3PvZGCxdn2Hnnqx2SslsctfXnY+V6VOju/5hMZlpMHla9IczWT+MieFKdBdzb9adSFtOX5pldxbGhjaG4xioruOKNK4De2Lhluujv29nRnppFBPTaSjro7duY8TkbKI5xu+lkSxk2HhjOrJbYrD3+jS4DDeXPhO9lVujN+hHtzcRCzEbS1OnxuSGB8fs+odGZ+qM3KNNpG+bTq+WvWU0GdMORuzf7hyMDW0MxzGkkXW7sbJ3d1z7sffF7is+EYNbb47J9E696enozM3GYHZtTM1viS0nnx1rTj0ry2ai3zsQvYwWOyvp5Zavif7u/46l3ZdlWLgnveKB9IDpB3tzsdTbGnMbHhazGx+WYebWNLYMLYWYy+kpnZXYA95JGBvaGI5b6KTmOvdbuvbK+PibXhsTN14Xc4vL6ZUGcTD9Vj9DxkGGlBO92Zie2RDdtSfECWefExsvuCC6mzenk5uM5dzD9QY3RH/vp2Lp1kvSIK7NiHNP7sEG0R/MpTc7PeZPeGj01j4oI9JTMxD1sHvkRUcPre8cjA1tDMctNMcRK2lQ134+PvzqV8SGfXtjbT+9TVrg4sRyrPSWMrjs5x5sGN3OZPQ7E7E/Q8qJU7bHlvMvjG0Xfk0MZ9OYJrPN8KZY3ntJLNz6P7mXuyId1v6kn0Y8mI3u3Fkxt+UxaagXZli5JVY6szExSK+Zxnh0QEHKBeGlL33prze5MYzhuINh9Ca7ud9aigM33Rr7du6NtKkYTOR+jKsbrER3eTkmhh5bD3OPlobhrY+F/bHjc1fEviuvjhPXb4rYsD7DxTXRnd6cIedsDPsZQi7vT0NaiO7EUiwvH4x+esrJNZuSytroduey624mPiqNOI3J0T/ocLOjXPOcrZN4HmyPPdoYjltgOCuxGDPpXVZu3hUHPv3piAP7YmlhbxzYvyv277wpYvFgDDMtHdgbs7lvW3E8n15wsjeTxrE2ds7Mx5nPfEZsOPdBaRte2boulvZ9MBZv+mBM5v5t2N0ffcbS2RZzGx8RvW1PiaWVbXk/kxx0k8ZKE8KyueFwJfG9NwIYmdPPvPP/2NDGcLzCigfJ3VTulYWY8/B438HU71TuSQq+mAiLsbh7R+z+/Ofihk9dGgeuvTbml/sxPLg/1qXnWjrYj6X5+TiweWOc8ZjHx5YHPio6E/20nx2xvPMjcfDmDyTt69KcDo5OG3unx9z2b4/OzAXpOdel9UynwXXSwNJbNmHkKCk7bGiHXtMaG9oYjlvg0Qapy8sry9FbiZieTI+Vir2Siu7l4KHHzcMMHZcyBMzr0mc+HVe9/wPprW6MXnq+mWEaWu7h9kx0Y2nT1jjtUU+MUy98ZOPYIq6JvTe8J/dt/xvTcUv0BunZButjZe4Rse7Mp6YxnRzLwzWJN9EYGug03iz7be6FjAzNe5LjPdoYjmPopiJPDibSCCYznOvF7qXl2NXvx97+Siyl/1jJuo53Hiemotubjt6GjXHCWedGf6Ubt+64NQZL+3If1o+ZjP2WFw7Ewf37Y/2GU3IvdkpaxnS2S0NeuDW6/Z25L1vMNIyFhX7Mzm9IZ7Y5OZhLo8r9oD1YN8PIbnq33AMyNO+MNP96HyxhbGhjOG7BIXt3OdIrDePynbfGOy+5ND56+RfiU1ddF9fcuiduObgQB1PpVzKcHKbhMMyJmbWx7qQzYk2GjLtuuT4jvX50ltJ4Emcl93L9fifWbTkjenNrYmI6w9Hl3TE4uCN7OBid3nJMChWzz4m129OI16RRTaX35LXSbWUom7FmpvRsDKyJGv2TnI4NbQzHKzRnianH1+9dije8731x6U3Xx47l5dixuBRXpce6/Kab4pPXXRc37fFOYzc2zMzHTG8mjWAiZk7cFHPzs3Fj7tsm03C6/aXoLB6Ifhpnd2ou5rdsjeH0VExkTLqysCs95O5stxCTsRzLS8OYWnNGuqmNaXxzGSx6MRlDQsbRG5AjP5bAMDMdvh/DGO4OEDaNDgPuefDLsMWV3Il1+2lst8TBqU7s7g1jb68bC5OzsTAxF7uWe/GJa2+Mt37ko/Guyz4b1+berD+Re6f0bGse8PA4+SGPjsXJuVhJY5npZYi5b2fsveKjsbjj2tGLydMnRW/+rDSf+bSjNJqVDCGH6fn235C9H0gu0oMdMrKBsTfm72j/EIceKSSMDW0Mdwu0DUx+dCBgQR+dyt0TQIk7k4OYSAPbvGV99pXmkvukDl5Sv7tpKMNBLxZ7E3HzYDne8ZlL422f+Hjc0l/0I5ncZ62LLQ/62pg/9YxYTC+2lGV+SrN801Wx+/OXZky6kDTXxXR6r4mp9Y0B9ZwmpgHt33ND1qWnHGTgany1thhqM9wvFvjR6Dh0HMPdApStl/ucMizXdv6eAFQdQHQyzc7Nx7rpuTht7aY4bc2m2BATMVj0AvFyLPm0QW63Brl/unXXzgzzOrFl67aYm5iIdIAxPTsdt95wXSwv7o/ewB6rEyvTszF30skxkbRyoxaDhSsi+jfmNozxTke/MxWza05KBjYnvZmMTPmyYfNrbgaJu+ZX2enKfItkbGhjuFuAMQ0Gh8Kk5gSue/ieAd4TXk145nMDvU43Nq/bEPfbvDXO2XBiPGDLlti+cX1sXDuTId9y7O/vzxBzKXppWH7MecPuvWmYc7F904boLa9Ed82a2L/jxkzXp0dLwsOJ2J/8zmzbGvObtmVHgxguX50OTn0aUCZ0pmY3R2f2tKyfb4y3Mals1z30NghDs4dMCYxDxzHcPbDaiwHGBsrg7n6wH+rFdKcXs9nFmux340w3Ns124syta+NR554eT3noBXHBqdtiPl3N4spKHOxMxN6lbnzsk5+Lff1BDKZyXza7Jk448+zopWdzcDEYZri570As7tqRXmwxu5mI7syJsdxbn57LL63TaId70wPekuPtJw9eME7IYTffEWlSmZadJC83hjHcDVBea3l59BxpJZXatcLJewYYdcTKUvaThjbZS8ObyIJe7sDSANZNRmxfvyYedc45cfrGE2K6N5leLb3ccDJ27DwQV1x/c/QnM8ScnIy5zSfG/Jr5xixw21teis7e3c0+zRPs3vSWGPROaM4UnT52Y28sHrwlV5HF5MHv0rTDj1hRQiXvsZkwDh3HcLcAw9q1a1e8+93vjn/5l3+JT33qU7Fu3brYsGFD49HuCWOjxh4ULy0t5l5oEB+65EPxmn94bbzvg+9vDkS2nbg1Znu5l8r91spKN6674ZboC/3SY+F3qrMSZ28/JWbSUCYW9sbgmi/Ewi23xKSTxO5yzKxbE3On3S9i7Ybo9Jbi4J5rorN8XUz09uR40gZX1sXspockF+uyf4ckGcb68tborD/tzc90mFp6wYbjMYzhLgLv9aY3vSn+8i//Mt7xjnfEv/7rv8Y//MM/xJVXXtl4tXsKhoN+TEx147LPfjpe/qcvj4v/8+K4+O0Xx6te9ar48Ic+FJ00qDW9bpy77eQ4cWYuplaGcdBp4txU3Lhvvw8dNK9s9Rjkmk2NsXRXFmN6pR/9PRkeHjz0DZLubBpUGqx3GtOoO5NpRMMMK5uw0b6MR7MnY6SJ06wrSSvbNgtC+11HwmrH2WJsocBkulbXCgMWFxdjIjeWFXvv2bMnrr322rjmmmua/NLS6Mhzeno61uRGc+vWrbF9+/Y44YR0vdkGHVf0rSzVp3ttK7ZXBoqv1TE/nooPdegqK9wc2x1O8uoxS0C74g1UeeFWvvpRX21ci646PMpXWfFf7YE65a7K5Gs8lPWGG25oyrXRxymnnBKnnnrqYdpFo/opmRR/2psfbYv+aaedFtu2bYup3KcAbeG6ogsXrRqX9uiUXIsPc3vrrbfGz/3czzU42mi/cePGeP7znx9Pf/rTD9MHcHk8/dIl5e2xgRpLgXyNq+Ry6smnxDlnnxMHDxyMV73mb+M1r3uNLxYkDGIuvdgznvb0eM7znh8zGzfFzpy+17393fGpm26Jg17H6nRj+2wvvvvxj4vT10zH/J4dsee/3h7XvPfiWNM/EP2sH249JU56+rNj/iyfobs5dl77zhjufE/M9W6KlanJWFg5P044/YVpWGflvZNIIWvyPZgcpeYZWyaHIym0w4ZWgwEGbtASQ6ty9wTk/rrrrov/+I//iA/lykHA+/fvb3AIomgRyNzcXGzevDke+chHxhOe8IS43/3ud3hC9QMPXVd9aa++6kApTuGVgrnqQ737uiqvdrcH8ID2AP02VL2rpF/0ihf3En7dw6n+Sk6uylzhwC3Qb5u2ay1qBTt37oy3vvWtjXewCKmDQ47Pe97z4qSTTmraKUdbP8WPMn1r9/d///cNjeKPfL7+678+fuiHfihOPDE3+q0+tS+a8N1ff/318ZrXvCb++7//u5lnPOjrV37lV+Ixj3lM7NixI17wghc0ZQsLC00bYeN3fud3xnd913c148OTeX3/+98ff/EXfxG3ZJhWMlVXV7zJV12BOkkfZPst3/It8QPf94I4cOBAvPzl/y/e9a53Jn0f9NB2EE980pPiud/7/Djx1NOjnzRf/bZ3xGU7dsW+3Kt1BitxVnq15z3lSXHSdC/W7N4Zuz763rjy4jfH2v7+5v3I5Y1b46Qnf3OsPy8NbXpX3HzVu2Nu4ZLo9q+NRbLu3T8N7QWpIGfGIOkv+RRdLxfnNLLewCtfyXPj8XJcoyF8EQyuQJ5ACb0ETvi8lkn7hV/4hfi7v/u7+PSnP92UwakJslIRCBoE8YUvfCH+6Z/+KX71V381XvGKVzSTVYIjWN5vZsZvfDL2TcUohQHq4eGl8NShbeJc9atMvaty6WiA3xoX2q7oAFd9AnSMx7iU46d4qqTu4MGDDd+SeuPQtsZXPJdcKEt7bOrbctMXr3DmmWc27asc3c997nOxb9++hr8qNxbXwkFP2VVXXRWXXXZZQ9s9Xvfu3dvQwJ975TW2ogWKv927dzd0zDN89JXzivqX52HJwFiABRb/6tGTjKM8GR1QVyCPLn1BR77qtWXA2kn4oAc8mB9/nr799FhMI1tO/F5vItbOr02Pd2qctGVr87wMR2vMc4aC05nmfDqun/leLgA6yPBzJfdk+2cnY+dUL25ONTgwOxud+dTJ9FZ+ErM8nImF/ppMG2L/Qu7LYmMaie87JnKmzpAXs8CP9msMjNFn5ZGGVsIltNV5wjd4wvmDP/iDeOUrXxk333xzIwz18EpJa7Jr4oqWCbrxxhvjda97Xfz2b/92fPazn21o1sS5ltJL1Y4yoOdak1F9Vr+S9nCAfk3o0aDaA3Ql/QD0apLxQkFca4z6Avitq/7glIK3x1/0QfGsHL/GU2Os8cMpfiizKAC+e4nsGAqlA/pGUzs05OFRRocUws+iqV65+bv88ssbGtoX38ambfGJP0bG2OAoB4973ONiy5YtzRh5Rd6RsaFtu8BjPupRj2pow0FTX8balo0yRqRMqj5KbvCLJ2XqJfdNm9yDPeWpT43HPO6xsWbt2kzr4qEPf3g8Wt9pdIN+yj0Dt3NPOzVO2bA2NnQ7sS75v2D7mTGfnisl1ficybUbY+bk7XFg3ebobzopTjzvwpg/8ZSs5QDWxvr190vFOCV602fH7Py5MTu3Pe/92hovKSvPy/yaQD7ViKagDY44dcR0CdeA5A0GGJh92O/8zu/ERz/60cOCKaETmv2Y5LRpbQ6YgEtghEVZCUzZTTfd1Ey+kFL4gz56pVzoySsrwWurHChDVyo+tCt+23VHg8KvfoqPdlvXNu0CfeIRrnag7tUVrTLK4h0UPWUMq8q0KUWULxx7o0suuaQpd6+cUp9//vmH2+tbnmEUP7zDhz/84Xjve9/btAElGwrOQB74wAc27bQH7T7g8X5OE//nf/6noa0e/rOe9axmEZBXZg/++Mc/Pr72a782vvmbv7kJKekAGmiRCTx69L73va/RIWVliHQB3zzh/Pz8YX2iN8qEorPpZRgyHTP2+19wfkxbJLL9wx/xiPi6Rz86Hv+N3xhPftKT45STTs7+RuNx9L/1xE1xwqZN6eW2xPnbz4iHnXdOzGa97+hPdCdiZm4+Tti8LTZsOz023++BsfHcC6O3bkssLqf+9WZiemZtzPTmYnr2xJjbsH30YvHUyTk2b/Dn/OksTcupI6uwRxsZWpblpB7WHgwRSoHBtw3jd3/3dxthA8IhdEIWHpxxxhnx4Ac/OC644IJGIIC3uuKKK5qY/Oqrr27CR4JErwT/kIc8JL7ne74n7n//+zd1eCigcIRqQlzda1M8yte9dmgWXakU5WigXY27DFtq91OgvA1w2sqJPzKrcv2TT/ElFci3eZQv+q7tenPwnve8J/74j/+4CZmqjsx+4id+Is4666ymXRkmA9Kve3J3EmgO1NUYgX4f9rCHxYtf/OLG4Ny3eah7NIT7jKN4O/nkk+MlL3lJnHPOOYfHW/NHDsVL0QLF9wc+8IH4vd/7veZQpNoYiz1nGa2+4Vd/2km1aCnHw5ZtfheWi0xOFVqJPDrp03Xuw7ye5WVf9TGZ4Xx6v/2p8rOTuZBl2WAp56g78MJW+qOMhjwTI6PJ2TSTXHyMLWlN+VHnyr40uIWIxT1JK03JX6hZ2ZhdpqHlbXabkHiZmv1Z0mpOIdPsvsTQ2hOBcQM2ca9+9aubkK/AoOGdfvrp8aTcdH5jriJWpJocqYTCIB2YvOENb2j2CnBqYijmk5/85Pj+7//+ZpVCV7k2lMpKjg48NBkxD6iMAVptHRhYudWbKKvgply5rH4WhNuD1YqAJzSFSPq2UNR4rLDr169vPDWjr4kH6ktukhVbe2Vw8E6RLUj6JE99COmE4sYCD314JYdSMNfPf/7zzQHCRz7ykYYngJdf+qVfikfkSq5feK7VBt6ll14af/iHf9hED/ohH/XqJDQyqokHPehBh5VeWwm4dwDyp3/6p83hV6PMCd/0Td8UP/ADP9Dwa67QFM7qQxu0yZ4xkB0oGdGF3//932/GX3193dd9XfzGb/zGYd5A8eK+dFGZBG908JEyyrq9e/fFF666OprT95xOhnbytq0p8/VN/SDvs3UM0tD6w2yfON5zdCzvTz8NBj4NbnFMuXRybtODLaX6ZjZxE9l3+1cspAilV0+zTGvLPWHaQW+qMTJ9oNtoRRpZmmhyl4W3ZWgG0x6s/Mc//vH4rd/6rUahlRs8JT777LPjO77jO+LR6a7hlWCqHVBGwMB+4KKLLmqUxYSUIgo/HAM/9rGPbQSKhnYf/OAH4+Uvf3lzb5WkgIz6mc98ZnPKiY6DGJ7SfgNNhujI+bzzzotzzz23CYsouH6KbvFY98CkUxQe2GJAsZ2kGS+FoVAWFWMWsljJKWmBsVBiPHie9PrXv77JA/uYZz/72c1+xV7nYx/7WNMHeejD2LQlB7RFBg996EMb+njEgwXFyeE///M/N/jKjen7vu/74lu/9VubxaXK9GtcDPo///M/G49mIVJv72QBYehw4PKKaADtyyDMhXYOsTyXAvDh/PRP/3Rz8imsQ1f5b/7mbzbyc689edEP42kbMe9qn0/m+rIQfc3XfE3T3ljh6aMN2gHlxj8y+BFuf3kxLvnYpfEHL3tZ4o3azs/NxrO+7VvjiU94fPTSkyUaZUzvlLzZt6WbSo4aGn7JySAY5HIaGhMZfc8gF33d8nI+O+7rWod0OZfP5t+VYYb5abxoo5lWoHVjtNkQavMe5O2+GWIAkklxwvi///u/jRBKYLzK937v9zZH9gTVbiMVlNC1YwT2FRTM0a5yQnF6JgYv5S3hU/yLL764UTKJgIVJ+HDa+ba3va1Zqct76Au/jqKt5BYIisLTMjbtVk+gdozWETqF+q//+q/GcPWnTqJEFFNfn/zkJ5tDCH0xoFqta8zo2xPxAvo2NmN/wAMe0NAky3//939vZIDvMhpewUL2mc98puEdHWMteTN2+GTiql65dgyY/NBRjmdXPL/rXe9qeFaGxhOf+MTGOBxKlTyU20+hR+5lTMA82d/pV71k3I7W6UDpBPoWAbLjpc0DujwlgwPaAqGoRbSiEHzbejg8QQtUuSRfvBaN0TXrmrthfOHKq+Mtb3lrynt/7Nt/IMfQj/POPy/Ou/95uX9Lx9H8LizxDauhyUy+mBTweM1nw5u/kZa6mUbr2425RDderbG5rG/+htowS5Vl2JmBqZqRgSXdQ5TyrumxKWz6KKhBGJS8JAwyUQZcYFIZmFWoYupqe3tQAnNU7QEmBS2alM0DTH2ZsDJcfADtCBmeCReC2ivWgYw2RYuSlHJSXLivfe1rm8lFA14lODzXP/7jPzZvMjA4fSivPiX03Rd9RoIuQ9dH4RYP8kB59cVILQ5W8+IbFG6Be8rNezFWAFeySAnF4OCDfHhIxlx917gARcZr1TmssBeyjyb/kjUc+6XiF/0yHgbJSxXok/FYvNp93RVAp/qtPKhxV52+ay6KvwZvhD6CNI7iKLPNIQVTgNJGG738m4Y7ZNipL3ntDHN/PZBy/NnQm/yj8DJpJq7TRTs5ZjQ6/MhKBux3cSOyCcr057/kHf9ZesQsG5BBGFSBFYqHAOoMjmdyumRlBCWYo0EZL8M02VLRIzTxv34oUK1qBZRfO7hWe94Vj/hw7G1D//CHP7wJ69rPbSgR3ij3G9/4xsPPnQr0yZM5aLD6F6Dr5MwhzY/8yI80D1wd2tQeS3I4xDM5CSzjrDGql5fwLURiNBYTvOHdYoWecBi+MbuiBfD65je/uemngAfh5ewRazGCxxDQLXmq0zeDZYjy+mSoFZ4yFGXwjR1vda+9ecCPOWFsNT58M9QKVavPuwL6RQe4SmgX6Leg8EZQ+ZFxNf82Vjdq2yg7pc9iJczhkN/5YsrKURlDY3ip/4k8kRuu0U9eGNqI9qiXUUv/5CznRRrRGUHTa3MrZETb/ZcYGjBweclE1SSWQOxXTFjhHzn424aiCSiy/ROotkIgSmW1J1i41Z+Jx4Myq7Q8hfvu7/7u+OEf/uF44Qtf2LyV8KIXvajZs6BNwdHRXhuKbhNeSrGcisQrCosoq77gC3Ocftno21fZYzznOc+JH/zBH2yOs8ujoEsJGXG94VDlxStQZky8JfqMxT4TvR//8R9vjNk9mag3VjTkLQQMGS1lwmrhdeEWz/Z89mOg+hW62Qe6ArjGhn9zx8gZNznA0Q9a2peMyE2Uob540tYrV9oqQ/euAhrmQNgsYhGaS/ISj2sxEX242peLJLrdXJwatT/EQw6dajeZFjR3yevIUHKOCt8Xqzr9NIiMDpq8049+hokWzlFq/pBFc3Jov+0nMbk/zJS720xpF2lRncHIG6afTZxR/yNPxsiyzzT2I6RUQiuBA5NdYFIosBBE/A1qAgr/aACHIlkVbcoLtAf2HhSmaJUiAeWlhGUMT3nKU+LCCy9sDEuyD+JpPTilEKCUQWjE2OTRZ9SUy2pe46Z8DMspKE8pvOJhnAZS8Kc97WlN2MuTF188AYMrnpVTQgld7eXJi5FZHOxtn+oBa+6LnN45cfWqEi/RpkHRK2xDX6LkDnvguDe+T3ziE82+COiToZCXcvXwGCm54YMXtVgah3pge2APWUDWZEPhqy88iRrqITXQl/K7AmgwKI8Q/uiP/qg5JfUow0HYn/zJnzRX98rVO9wxNjzlDDfKPDK4hCySG3maw6Ujg2Bkh0LA5j73X47fm+9D5l6r+TNMDKt51dhVyvKkU2Gi70MytgzeM6UOVPjZ0B317FK9l4mN/m0B5msCJRPonrBL0Rkag6tJLEU9GhBmKYGJMfHao+tadSPhJbuHaNckM07Kwxg8DBUuUszqG17RtYf49m//9sZQlFsgQB1moM1TWyHRrr6cngoZKSBa2tWYJQbHmBmderR5M6s+j4xGjU9ewh9jw7eTPQsBRaXwaAsDyZMRO2msvrRFE+3iATAyi4Cxl0yFdgyiQFunmcJ+eW0ZWR2umDuPBNAwVjg8LmWHCwdtj1bQVWasteDU4wdl1d9dAbQsKjyzrYE5YkiSbYKydnLIVQtk4zXIpkmHCGKHXRxKfFiVN/e5wWr2ZI0HkjxFy21GJ1Pej7wRU005REZGh1IMp9LQ7OGyfWNKmQ4ZGrpNv1naXBIaQ9N1Vh5hISWwtqKYlIIqo/CEXPfypQi3BxXKAbjVVp7ASmmqrq416drKU1L7JQraxm2Ennl4lIfR2JMop9SMxqLB2IRyPJrJgo8+o/QoQFhGsSk5ugAO2pL+K2zGDzwHLcIr99q0+XVFj4HgCW/FK57k1Xtc8g3f8A1Nf9pX3+gzVHRqLPrHJ4CLlpPOyrsKrywCxQdvWgcYgGdiOHgofik6XtxTfIuREK3A2HlUsi868LW9K1ALmnG6Gjuarng3buBevsak3Qi+VPeYQvPvsBJzq9JDLRpPJGWfmZqPoTLc5ioxvpExjzzWIaNinEnzkBWhlHn/pD42N/g9VN4qOQwlPFeDcvUzCtdSDkBJTUYpg0EXVLt2G7gVQimjlGjALfxa4QE8ZZSshOyeVzPRvEO7n4KiByiiI2Pt0QEmRgjp6oDCvqB4Z3x/+7d/Gz/1Uz/VPFf60R/90eb6Yz/2Y03e9Sd/8iebl6I9AqixScLrWnyKr+LF2BmRAwgP0bUrvMoD+TqgwFOVA2USusp5J7TIrMrsP+XJ0FgYmnHqh2GYR54IKONFGSx8iyBch0K1wJCNRan4UKZfIWf1Wfy35//LAe3JCS9oS/pDW7lU5dWvBIdXEahJiZG6Xwll/xwykEOKr85RfyX3aHQzjHT4McJKWTOwrMsW2Y/5yj6qnfrGEDM19LK/Q7anzzLqlE6TOoPkV1VBw3imGpRk8q3CBigxGKEK7wDXgEuRSzhFp/IUoiaF0KyWvADQhzKKatWlDCZdOQVpr3L6sQpLAM2aJPg1UcCVsVE6Bupee/3AR7dAnT6FWw4Q7LsomdCSwlrZhWFCGldKqD2e8ICmhIYyPCnXDyXWPwVVrv72QBv1Uo0DtNvIMxDhI9rutRPm4Vk7nloYKK/OAQgPRj7FA+O3v8UbHHVoCCG1sxDVAYlxkKXQ0/ygIQH1bV6/HCA30cdzn/vcw3tYyUsMDrdcKzk8sj+34OobfFE6I8MYpdsHe7JROlTAGCp9SdMvGrKkzagd0zlkPs0+L71rc2iikrH5N420kc0qQwM1qXU1oTVBlUyk99WAwVYYR2CELi/JmyTlRUPehFJadSaZwjAeBySMuqAUrwyj6tyjrUwqvnjKtgHpCw08Fh14xRsoHgBDbCuO9nCVo4tPuMqBOvjGpk4CtfBUe+X2jqBo3xUQ5jpiJzP9V+JpjccCUc8N8UCu3pRpywweGviC4x6f9fKxvaHQE//GJ2ykCwwULhx1oK5fLujX81WHQgypjKqMrZ13hWevSO+OFzjC0EoJSvEI0CpmouQJ2KRY7bza4+reaq4tgZkUYOK14c1ceRa4royUMijXjmI6NeQ9tWsrbBlR3fMuFEA/DM+1FI3gy3tRJgaNlj7RUC8pczXOMl55K7yj9mc84xnNfskJozcpnG46ifSzEG8vyDs1VCe1XzFCpxTAPb7ITT2+JOVfLtRYS17ouifn2qfZaxm/OoYhUhBqAvyRGT6Ek+XplKPjlxnky6sXDcCLooN3fcC9K+NoA73QlzGYG33iyVUfdV+8S/Cl4wWOMDSDKmUohRAqUCaDJYRazXgkv7itQwDlldTXxMm7UmgGacX0qpN67dRbmSm5EKcm0lXSFpTBWGnrlM8EScWrpA9XIZATM7T0BQcPdWJqn+fUrZ4RwfEQvfZov/zLv9zszfyC2A9cf+ZnfiZ+7dd+7fD9z//8z8cv/uIvNvdCHkoPTD7e9Ech0AalmHV/VwCvlN6eiSGhqd86OWQsNWaeyElp9a288uRhzBQc1N4ZHWEjwDevxyPWHlMC6IOaoy8X8IEmuQFzhib67atyYKylj8cLHGFoBQYmmQxXhmYFNUCrtTJ7NJ8x8HpTPUdaPQGgaJhAXtAb6AxGWeGZRK9zUXz4JVxQ7U0CxbWP8uoTb6qckigHZVQOPLxVwaNpX3wJufRlgpwC1vcy0DE2/HluxXi1M1Z5oA95huwkDh/yNfnFL0DfGNAA+le/emxfDqCFhqvFyZiq3N7RF6iEjSU3hiYqqTFpW3mJPCymxmGMtgWeN1rMagFl1O1HGtW2oJ3/cqBkjF99VH61nPRTi7PxVrvjAW7T0ICBAIOy+nsuZdWmkIRPQU2sdwT9hMJvlUywh55WRokxOpHzlr139zx01KZWIrSFpY69a3Nbk9iePHj60y+a9ZMbYSTFYISUHm088JiMBqCjvVXTym7TrUwo5FSy6l0ZDy/NKxiHcpNJFvL6Zohw/vqv/7oJf/Vdig9Hqntt3Re0818uVB9kYTwVzhWYB/0D3o7Xq1Na4NrO2xuRPX4psTHW6SP+yZ2spHa7Nqy+P1YouTB048KLBNp9SsYGT/7ukOdXCo4wtDbjpTilMH4v5KGqFbLK1DMob2IzNk/2vZ3+lre8pXmH0Nvcf/M3f9M82ZfXBpRBCePshern7m2h1rWUpsooA4+F/l/91V81fQlHvQql7KKLLmqMkMIUnybGImEMtSJSPg+9S1EZP+USdhkLWl7RYkwenNpXKjNG7zj6VYHf59VJX4G+QPUDSo7AVarxqGvn27TadW2cai+U42kYlHHq02JjUYEnQrAHq/1om37l4TjkqDIgWgDaCOvrIbU+iw9Q+EC5+9U4VV64VdduW7ypM99S3YPCdWWIlVffblP490Y4wtDajJaCAxMofdu3fVvzdgOvYKAEJBm8DbSQw5vwlN2Kb+V/+9vf3ni1UgR9aCtsc6BQxguqroTnWkkfjIFymXQeh/Lrq17PkWd0tU/TpzaUSV9CreIbL97EcLCh/yrXr3fuLBBoWiQYnj48Z/NWgtAXPwyQIWrjvnite/SqDH1QeHUP4IHiwRVOlbVTu55R1xsy7ktmrqD2VkCbgqIN4Dp9ZJx4IxdlxZOIw7ahzeNqWqvvtS9e2rC6bdEE1abKtK321Ydrjb/uwe31VVd1RaPuq/4rBV8c6Z0AXsCJnOcY9Z2JYthgayC8nJW17cEIqARi8oWiftNURns0MPmUgGJ5K8TJH8UAQlnho1VYvs2PPimhk0SvbWlTQnb1bKhOGXk8+JXq4MWhjxM4e0wGjC7gjb2raLVHC7iWkRceKLkor7r2vbEB42zjghoHqDJQ5YygDK1AHg1jqpeggTLgXvuiIYSGWzSqXpQh9JTuCNDWrvoA8lVePAH5Mui6r2stRFV2R1CLQ20tqi9wLHTuaTgmQ6PINt8+W+Dtc97NqVVtyEFNHqMg2LonCPsBb8B7054nYbjtibk9YLDaAyssGgynlAiN6g8oc8zvnUeLgrfvKaN6gi88eQZTL/YKYWs/g0YZOJBXLpSCh64XkOvtk/aEwq1FqCa/zVu7/7oqN86SV/GKlvI2feAeDu/O2Es+7XKLYZWDqpP0QWb4EyXY7ymr8cKpPV49MjkaqEe/+Jfkqz9gLEAfcKsv41MHH09VVzSPBtrBa0cxQL4SWE2rnf9KwBGfMrgjwGxbgPZB9iiO0YWHVn3epQRoMCa8XvcxafYMJlZ7qfDa4F4fvrzkq1vouWfQfrrioaY3/esNDn3jBZ6JEpYyQoZt/0HZ0Cxho1VKVYosOT0VNjoUqYMdeHD07e0OHtjhgb2dsqKFtrz+HdbYM7oHZODAhydvj1m+eAb6d7hUnhNd4xCyg7ac2uMQzgqZ3Su31yRj+18LgX7gqWvPjWTcFgX7UaE/3FJ6oad9LRnCLd5vC+DbNrRfrRMxaO/Us92Wvvjlt6inZEemthF1X3yAo/UL9C2EdwrOGWhnzp1k2y6g+X8Nx2RoJqlWaoMrQQizCE2qo3uCBjbiFNKk1SYdtHEIAr0C5e7L0Nyjiwal81sx7SkJwTK6Ov3DHzyCthIrw3dNIFqVb49BnsKjIzlwqXau6KFrPNrU5KEjKUMDfQaKXzg1RjIwfjigeKi2ZezG4l558crLqmv3WVdl+PPIoQwWrjwDL1oFxY+y4hcNY66FRXuAhjG7tmncFqDjuy1w8VN0zUF51ZIn+hZkvIHiqaIJfN0Wz7cFJQPy9mpf9SGRt/m6rfbK7mhMdycck6Fhri1EeSBfTMvXINqJUO3dCL1waqLVuxZUXRmaFV47gvNrZ2GbvlcrZAkZmMyaSKC8lNzVvbag+KsJLv5KYQsPFM/VX7sdUF59KWuPq6D6LxpwKqkrnOK/yuAXf0XbFY3i08JDTnivvl3LeNBs8ydf46xr0QPw2v3fHqCr76KzGrd4Afqtvl21ZejVpo17R1C4eLbItvkFt0dLub6/UnD7krsNIMCaKOBaA3Et5msSq7yUQMyvvfpSsMI5GmgDX7u2wqDZ7te1BE3oBe3+pOK72hRPytt1yguq7eqknSsonooWqD4K2vd4qj60UQeqzH3RadODW/jtvuQtSOi2+1FuDtBVVvU1Vlf3pah1X/se7aqP24OSr3YFlXdFt/hxX7iu6kDJ7476akPR0Iahy1c/x0LnnoZj4qQmoBKoQR0NSpDVDp22ENBQXgKrfEHlKcvqerSLLlAuVZ9AG2VtPNfiQb7q676gXVZ4oBSn7m+Lr6pv02u3cS0+23iUtnhrK3CbfpXVffVX9IofULig2lRZtQPtvLpaIKvtHUHRLN6LlquEvvoqB0WfkanXtsZwZ6Hw222Ll9uDo9XdE3BMhtYW0N0JRZe3KmGDtsDl1deqRVDwavUfw90P99R83xfhmAztnoJatYU9DIgxuSpjSOqtrkJPV+XKwFgZxnA8wL3C0ADDKg9mr8CgPPtyPO1Y3FG9o3XPsRhZhRq1ZxvDGO7NcEynjvckVCgotT1aHdszPAbG68kzsDrwaIeYYxjDvRHuFYbGoMqjtfdn8hUaujIuZRVKAvlqM4Yx3FvhXmFo5c0YE8Mpb1ZQHq3AfRknaOOOYQz3RrhLrqAUva6gjMS1Ut23jQOUgdSVkQH7r7aXKiMrenXSqF21HcMY7s1wtxhaQRlTQRlC7aHqvtoVvmvlj3ZfUPTGMIbjBY7J0Cj76rCt7l15IalOAtuG4uqQgzeqcm2k8lBjGMNXKxyTodU+CtRVmTfnvYTrXcYyuPJCjMub8PJlhGVodUQvjWEMX81wTIZmD9X2PmVkfhLi18f1N8sKh+H52b+/FunX0GVgjI5xjU8Mx3BfgWPScgbESOrQws8SfC/Er5D9INMnyhidn8sAvw9S5w8q/Nu//VtTx7C0r5CxDG8MY/hqhmM63q+wUGJkfsbir334xbVf+fpLHz7i6XMD9Xlpnwnwg094PqTj0wF+DFj02ieKYxjDVysc83O0CheFgj5B7Su+vtTrN1DCxvpalL2Yzx34da0f3/nJhU+hvfOd72y+AOyjMrwZemXAYxjDVyscod0UHjAAQPnL05RBMBjhop+9+9YGI6vfQKkXNroyxvbhCBwhJMP0AVRhZPXT3vdVWFp9V/u6alOpDerb5a7a132bTtWByhftuhas5qHwK1UbdW1cqQ5+5AuqnbLKg6JR5dUPkC+51BUULih813qDxn0l92286su9A6vKo1/47b7aoC2AU3OnjfYlB6Bevu7vy9B76Utf+uuH8oeFRsAldKEdQZk87xYyMt9orC9hqSdcuL4DYU/mozU+2iNU9G0NLwKjx+v5loW38H2k08/kfX2pFEP/6KGlrN5rpAjtfmpCgTbtSS5QhmbxXQqAjvLCKTx0CywmeC162qDjWqBN9Sm5lwoXzzy5PNrFJ9zCUVY05F3hVL76KN6U1aIGr2hUXb37qU2lGlsbF8grh4Om+uqv2hUeaPMmwQdlpEC5tgXol7y1vS/Dl4SOBFUTIBEwYREUL/Tnf/7nzbfpfWGKAEvoDj7U+8CKOt+K8E3H17/+9fGSl7yk+TgPPMrgRWEhpNDTx3YYrL5KeUw8g/bIwEQyTDzB8wk435uA6zsc6PrUHAP2UR70fWPSXhHf9RkEf2lTHz6Agzbe/YH5+t6/rx77orJ+7CtrXD5648Mxfj2gzKMKuH5R0F4k8KNPC4tfGfhgjgXGx4jw6+MxDE+9DwAZWxmH/a16+14860s7NPFjzP5Ulk/L+eBNzY164xOu+94HWj6Bp9yfn9IOvqjD90P0J9LwkVhy8MEgMrOokLPxaUcmZGrRND5zaeE0Xt800V69vbY64wbqzIM5qa+D6RPI35fhCI9mUgGB11WZiaOEPiTqjz2YOIKTTDRlJGyhJOVVrq3v2/sC1ste9rLmc2YmAag3wSaRF+TZ3FMedQzRPs+ezqe9KSHjYWgeFSin7JRPO/2beMqJhr9phlcKDc+XmYStDmv8DWR/46wMC38OaiwgvqalzuKAX0r0sz/7s83Bjr8/4OpLxR5j+DKUk9aSg7FcdNFFzaKgTv88OgUlCzTRdzD0xje+sTlIwoMybXzG3NehfJTV2I1DW0bq68++qc9o6qtWlRgnfhgn+fr0uvkhI+3tmxkGQ/MBH/36+ZGPpgr/GWgtUGj5AjMeLSjwyRxdi5rDLXThMyZ8WlTwb5tgjixAPkhb35qsdF+H2wwdKU0bfNaNorzoRS9q/nJlKZZVkDLzEFZHRoaGSWOgriaN4F/5ylc230OkvNpa3a2c8CgXJfIVJO0pkL8lDZ/X4xF9/Uo7vNjn+QsuVm+rLIOhDDyD1bk+G/fiF7+4wXUKCnzC2+GMvwLzhCc8oVFEe0qPHp75zGfGC1/4wsbz6UcZ+gyAkhmHz9Dx0nilqOUNjcGV4qHPAzJ+RnL55Zc3Rut7/uhYDHy/H23fm+QVjJsMLWI8vK9JMTofirXI8P5kyBAoMiU2B/pkSIzVQkIGjAM9NBhJ/WF5BmXBsbA88pGPbAzPgsAIGQ7ezJeoRDtyMS79WQj1hSdteFb86NM86gM/+jYehmexLLlI93U4wp8TDCUXalF4964mjhISsnuCc4VnkigHoSszqRWGuMJlNDwDBa5wyZXC+PYgJffNRPj6RFe9trXPQQ9vFIZC+2v9viMoPBJuwdWeh4XLw/3Zn/1Zg8cjKBeuMQT9M0irMXBP8SgLhaOIvJc2lIxx+Os0jAUeZS1+8KadhFflAD/CaPe8jLCqFA9dY+AdfTad9+ARLCoe/POw9dd79EnG/jabsfO42lNktACjYLw8uTFaCODwmAyHIZKvcZI5ecnjF5BVe27Q1pdF4h3veEezaOCJoWujvbEA4yYH46z5du+KlvoxrDK0UhhCLCNzpQS8BuUDykyKZBUzCcI4UDQI2tUEWgntI0xg0VRvv2BPIKSjLAzMJKmvybJiy6PlSlEYtS8V8woWAXzAg18Trlwoy6NJaFrxhTcUpkIdbfGIl0qUFq7+GCSP5EOtlNz3+vVR4wf6hStVGX4pt0WEV+JlSy6Ulbf2pWc88g7GTj48jH2crzGTLUMxtnrFjacu4wbGVQsM8Jl1Ze4ZGCO2uNSiog/4leDih1FoYwx4IWfG/tjHPrZZeISmZIEHY2BsZOWqDZ54MnUSKOMtmdyX4UuWG0IxiZQJyAuRCNXqSwmVldLYp6jzhV2rbxmJK6AY2qGLTgme8liBhWImhJdQrl/tS5EoQU2ccsrBKBl2HZaop8z2H0Iw/FAIoZ7VulZ0oS3DdnAjNLTvQVMIaZ8jRLMnVM8AeDe0GR0cCigsxCMFA8VvjZfC1hgpntALLR4CKIdD8Rkwb8lras8D+jhs/UFBsmZseHfVjrFb8Eo++meoQtk69MAbnoVxyoyfEelH+GjRID+Lp9C7Fhd1+EDTlQzVSQzP4oU3CycawniLljGRAf4Ysrb4Q6fm7r4OR+zRAMFIBOdaBkUhTLLTNBMvPFFO+azAJo5ymJCq4+mESJTU6k3wJsVEmCSbcautvYh21X/1Ddck18GEcpMvDJNMKkUxwYyPMlMooRagBIyRUTsJpZDGYxzqGI1PRrvqRxhKofXnbwPgQbm2DiEYh2QcrpQaoIk3PJAThdRO3gKiXwuGsda+lMzUAW2Nxf6X58AbY+FB4NvLWSTwoG9j1od2ZCShRQ4lP8kiiEcLGfm5JwsLUBmR/WstXPaU9qISPOX4IlP8GwcZl6zNAZ70W+Mge9eSCcDTfR2OON4nGEKpyQKVpxwUwIkZZRS6URyTDMfm27MxEyAs0saDaZMmnCnBS7wK70OJHD7UZrvqK++KfhloQd1L6BYPynk4V+UUDMirN4b2tcIeCcDXluLIF231ykHha1/3lYePdjuvnfo2/0CZVP3Ao9wUusZWODUm+XZ/6OMVbuUBfGODpxx9UPy4FqiDhw909K+98hqDevniFcCxyKqrseGtQD/F9xjuwNAIsCai6nkIm3arvw06b1XCtlLaONsXWC39kQFGV/soK6NnMwzSCaHQpm1k1Q/Qb3vCARpwSmHa7drX1aA9JVGPRk1+G1cdKDqV2gZXZW0c5eqV4beUHRT9dnvQLq980WrTbQOelVV/hVvloOi3jbfy6vQlVR/tvssgi7666kOqsja0adXYi46ygtXt7osw0uBDUMIhmBJO5SX1wkIbZGGIPY1wkWAlIaUQxn5JEgYJCU2CCbcn4+WEamhU6AWqj1Ic+LUPAuoK2opQSmaC28rSHot75aDoq6+yol3XNv3Cx0u7fPUVrJaftqv5AfJSlbtKbX6qHZAnw8JRXzSUu4LCKWMnQzzAJ5tqA0dZ4ShDt+oloG3NQfEC5IsXV/j6RMvVffWnn+rrvgxHGFpBTSRB1gRUOShjs1fwgJOxEbjjYHsvR/a8nYMOIaUJY3gOHzyj8QyLAdZkVV81gfAL3OvXtfioeuXVTpk8gFdGJ8Fr05RXX0rmvuhL9iWu2hUdIA/a/chrL18runtJKFiAfvEC2jSqTL7upQr/JPiuBVUGr9roXxmDa+O32xXgs9rgs9rps8asXeVrHoDykhl88qo6+DVWebi31f99DY769n5bQDWhEgFKNs9CRadaHloKGXkrD6/hOdlzrO14mNExPm/t17uP7QmpiVVWV5Oo39X18qDK4SgHFEdeWdEuOgxLmVT4hQfatPRFmaoNZUIbVH21K4OtMn0C+dU03cvXfUH11capeuX6buMr0wZUf/ox1spXP1UmXzwB7dBsy0AZusrb/MCRL75W54tHZUCbag/qel+FO/yZDAEDgiI8qx6BKjcpjs8ZkeNxey7ejMdT53TqTW96U3O66EDEa0xoSOjVpJhY+O0Jr4mpyQR1hVs0tGkrAag+4FX5anz3t9VOXjnlrH6qHsCva5tW9UG5yrDbtID7audaPLQT3GrXxikeqqzu23l4oMrggqJV13ZZ0S9ZFV57kQFtenVtQ9GT0AJoKB9DyuyODK0NhFgCL2ETKs/mRJKnEhJWHWCIHgw7DndcfTSoybq74Z6ie1uwuq+vZN/3JHy1jOP/Co7J0ACBS1Y6gpevFaxd5lora3nBMYzhvgkR/x/jRkMeqweXygAAAABJRU5ErkJggg==;" vertex="1" parent="PDopcycZYU54J8PSpkbe-122">
          <mxGeometry x="10.460000000000036" y="12.919999999999902" width="72.08" height="29.1" as="geometry" />
        </mxCell>
      </root>
    </mxGraphModel>
  </diagram>
</mxfile>
